<svg xmlns="http://www.w3.org/2000/svg" width="27.001" height="27.001" viewBox="0 0 27.001 27.001">
  <g id="그룹_353" data-name="그룹 353" transform="translate(-45 -264)">
    <path id="_Color" data-name=" ↳Color" d="M-10.5,30A13.516,13.516,0,0,1-24,16.5,13.515,13.515,0,0,1-10.5,3,13.516,13.516,0,0,1,3,16.5,13.516,13.516,0,0,1-10.5,30Zm0-24.3A10.812,10.812,0,0,0-21.3,16.5,10.813,10.813,0,0,0-10.5,27.3,10.813,10.813,0,0,0,.3,16.5,10.813,10.813,0,0,0-10.5,5.7Z" transform="translate(69 261)"/>
    <g id="icon_navigation_close_24px" data-name="icon/navigation/close_24px" transform="translate(46 265)">
      <rect id="Boundary" width="25" height="25" fill="none"/>
      <path id="_Color-2" data-name=" ↳Color" d="M15,1.511,13.489,0,7.5,5.989,1.511,0,0,1.511,5.989,7.5,0,13.489,1.511,15,7.5,9.011,13.489,15,15,13.489,9.011,7.5Z" transform="translate(5 5)"/>
    </g>
  </g>
</svg>
