<?xml version="1.0" encoding="utf-8"?>
<!-- Generator: Adobe Illustrator 25.4.1, SVG Export Plug-In . SVG Version: 6.00 Build 0)  -->
<svg version="1.1" id="레이어_1" xmlns="http://www.w3.org/2000/svg" xmlns:xlink="http://www.w3.org/1999/xlink" x="0px"
	 y="0px" viewBox="0 0 63.8 63.5" style="enable-background:new 0 0 63.8 63.5;" xml:space="preserve">
<style type="text/css">
	.st0{fill:#FFFFFF;}
	.st1{fill:#E0E0E0;}
	.st2{fill:#47D6BE;}
	.st3{fill:#F5F5F5;}
</style>
<g id="그룹_201" transform="translate(-21.265 -206)">
	<g id="패스_170" transform="translate(22 206)">
		<path class="st0" d="M31.5,62.6c-4.2,0-8.2-0.8-12.1-2.4c-3.7-1.6-7-3.8-9.9-6.6c-2.8-2.8-5.1-6.2-6.6-9.9
			c-1.6-3.8-2.4-7.9-2.4-12.1s0.8-8.2,2.4-12.1c1.6-3.7,3.8-7,6.6-9.9s6.2-5.1,9.9-6.6c3.8-1.6,7.9-2.4,12.1-2.4S39.7,1.4,43.6,3
			c3.7,1.6,7,3.8,9.9,6.6c2.8,2.8,5.1,6.2,6.6,9.9c1.6,3.8,2.4,7.9,2.4,12.1s-0.8,8.2-2.4,12.1c-1.6,3.7-3.8,7-6.6,9.9
			c-2.8,2.8-6.2,5.1-9.9,6.6C39.7,61.7,35.7,62.6,31.5,62.6z"/>
		<path class="st1" d="M31.5,1.1c-4.1,0-8.1,0.8-11.9,2.4C16,5,12.7,7.2,9.9,10c-2.8,2.8-5,6.1-6.5,9.7C1.8,23.4,1,27.4,1,31.6
			s0.8,8.1,2.4,11.9c1.5,3.6,3.7,6.9,6.5,9.7c2.8,2.8,6.1,5,9.7,6.5c3.8,1.6,7.8,2.4,11.9,2.4s8.1-0.8,11.9-2.4
			c3.6-1.5,6.9-3.7,9.7-6.5c2.8-2.8,5-6.1,6.5-9.7c1.6-3.8,2.4-7.8,2.4-11.9s-0.8-8.1-2.4-11.9c-1.5-3.6-3.7-6.9-6.5-9.7
			c-2.8-2.8-6.1-5-9.7-6.5C39.6,1.9,35.6,1.1,31.5,1.1 M31.5,0.1C48.9,0.1,63,14.2,63,31.6S48.9,63.1,31.5,63.1S0,49,0,31.6
			S14.1,0.1,31.5,0.1z"/>
	</g>
	<path id="패스_169" class="st0" d="M82.5,225.2c3,4.7,2.5,6.2,2.5,12.5c0.1,17.5-14,31.7-31.5,31.8c-17.4,0-32.2-14.3-32.2-31.8
		c0-6.1,2-9.5,3.2-12.5C24.4,225.2,82.5,225,82.5,225.2z"/>
	<circle id="타원_91" class="st2" cx="54" cy="238.1" r="26"/>
	<g id="그룹_200" transform="translate(-2 207.224)">
		<path id="패스_1" class="st3" d="M63.9,26.8v10.8c0,1.4-1.1,2.4-2.4,2.4c0,0,0,0,0,0h-11c-1.4,0-2.4-1.1-2.4-2.4V26.8"/>
		<path id="패스_2" class="st3" d="M45.3,29.2l9.8-9.8c0.5-0.5,1.3-0.5,1.8,0l9.8,9.8"/>
	</g>
</g>
</svg>
