<svg xmlns="http://www.w3.org/2000/svg" width="64" height="64" viewBox="0 0 64 64">
    <defs>
        <style>
            .cls-2{fill:#e5e5e5}
        </style>
    </defs>
    <g id="ic_nodata_meetingroom" transform="translate(-203 -123.735)">
        <path id="Rectangle_10853" fill="rgba(232,71,200,0)" d="M0 0H64V64H0z" transform="translate(203 123.735)"/>
        <g id="그룹_105705">
            <path id="패스_20801" d="M247.167 162.192h-25.59v-17.85h14.331a10.581 10.581 0 0 1 .259-1.5h-19.211v1.5h3.121v19.35h13.544v5.836h-11.838v1.5h25.178v-1.5h-11.84v-5.836h13.546v-7.728a10.859 10.859 0 0 1-1.5.17z" class="cls-2"/>
            <path id="사각형_114961" d="M0 0H15.544V1.5H0z" class="cls-2" transform="translate(226.567 155.411)"/>
            <path id="패스_20802" d="M226.567 151.017h10.9a10.764 10.764 0 0 1-.78-1.5h-10.12z" class="cls-2"/>
            <path id="패스_20803" d="M246.644 136.324a9.049 9.049 0 1 0 9.047 9.049 9.059 9.059 0 0 0-9.047-9.049zm0 16.6a7.535 7.535 0 0 1-5.569-12.626l9.87 11.272a7.5 7.5 0 0 1-4.301 1.351zm5.44-2.33l-9.894-11.3a7.537 7.537 0 0 1 9.894 11.3z" class="cls-2"/>
        </g>
    </g>
</svg>
