<svg xmlns="http://www.w3.org/2000/svg" width="26" height="26.701" viewBox="0 0 26 26.701">
    <g>
        <path fill="none" d="M0 0H26V26H0z" transform="translate(-366.214 -317.862) translate(366.214 318.277)"/>
        <path fill="#308059" stroke="rgba(0,0,0,0)" stroke-miterlimit="10" d="M5976.386 8273.979v-25.7h3l.145.079a6.885 6.885 0 0 1 1.9 1.757l-.937.938a6.139 6.139 0 0 0-1.462-1.475h-1.356v12.457h1.375c2.916-1.719 2.961-5.876 2.961-5.92a9.13 9.13 0 0 0-.544-3.21l1-1a10.175 10.175 0 0 1 .839 4.216c0 .207-.042 5.1-3.779 7.141l-.145.079h-1.705v10.638zm-10.636 0v-12.264a5.175 5.175 0 0 1-4.535-5.119v-7.668h1.3v7.662a3.886 3.886 0 0 0 3.237 3.821v-11.417h1.3v11.417a3.859 3.859 0 0 0 3.233-3.821v-7.662h1.3v7.662a5.172 5.172 0 0 1-4.533 5.121v12.268z" transform="translate(-366.214 -317.862) translate(-5593.053 -7929.915)"/>
    </g>
</svg>
