<svg xmlns="http://www.w3.org/2000/svg" width="28" height="28" viewBox="0 0 28 28">
    <g>
        <path fill="rgba(232,71,200,0)" d="M0 0H28V28H0z" transform="translate(-664.61 -325.153) translate(664.61 325.153)"/>
        <path fill="#333" d="M689.043 346.293l-1.075-1.936h-1.008l1.312 2.364H674.41l1.664-3v-4.4a5.419 5.419 0 0 1 5.544-5.286 4.878 4.878 0 0 1 4.99 4.757v3.8h.882v-3.8a5.766 5.766 0 0 0-5.872-5.639 6.308 6.308 0 0 0-6.426 6.168v4.179l-1.553 2.8-.728 1.31h5.358a3.075 3.075 0 0 0 6.144 0h5.358zm-7.7 3.358a2.2 2.2 0 0 1-2.19-2.048h4.38a2.2 2.2 0 0 1-2.192 2.048z" transform="translate(-664.61 -325.153) translate(-2.301 -3)"/>
    </g>
</svg>
