<svg xmlns="http://www.w3.org/2000/svg" width="34" height="34" viewBox="0 0 34 34">
    <g>
        <path fill="rgba(243,156,159,0)" d="M0 0H34V34H0z" transform="translate(-306.36 -172.291) translate(306.36 172.291)"/>
        <g>
            <path fill="#333" stroke="rgba(0,0,0,0)" stroke-miterlimit="10" d="M5629.774 7588.16v-3.15h1.592v-6.11a6.365 6.365 0 0 1 10.791-4.582l-.97.562a5.292 5.292 0 0 0-8.77 4.02v6.113h2.7v-3.776a2.625 2.625 0 1 1 5.25 0v3.776h2.7v-6.113a5.251 5.251 0 0 0-.571-2.35l.926-.533a6.344 6.344 0 0 1 .7 2.883v6.113h1.592v3.15zm1.049-1.049h13.832v-1.051h-4.9c-.009 0-.017.005-.026.005h-3.979c-.009 0-.017-.005-.024-.005h-4.902zm5.34-5.877v3.776h3.152v-3.776a1.576 1.576 0 1 0-3.152 0zm-5.664-11.24l.653-.459 1.684 2.4-.653.459zm12.142 1.942l1.684-2.4.653.457-1.684 2.4zm-5.3-1V7568h.8v2.933z" transform="translate(-306.36 -172.291) translate(-1 -1) translate(-5313.38 -7388.709)"/>
        </g>
    </g>
</svg>
