<svg xmlns="http://www.w3.org/2000/svg" width="28" height="28" viewBox="0 0 28 28">
    <defs>
        <style>
            .cls-3{fill:#333}
        </style>
    </defs>
    <g id="ic_title_security" transform="translate(-.001 .001)">
        <path id="area" fill="#f0c0d9" d="M0 0H28V28H0z" transform="translate(.001 -.001)" style="isolation:isolate" opacity="0.001"/>
        <g id="ic_time" transform="translate(2.001 1.999)">
            <path id="area-2" fill="rgba(230,100,108,0)" d="M0 0H24V24H0z"/>
            <path id="패스_20914" d="M688.782 349.19h-10.747v-.5a5.38 5.38 0 0 1 5.374-5.374 5.379 5.379 0 0 1 5.373 5.374zm-9.719-1h8.691a4.374 4.374 0 0 0-8.691 0z" class="cls-3" transform="translate(-671.235 -340.815)"/>
            <path id="사각형_119671" d="M0 0H1V4.473H0z" class="cls-3" transform="translate(11.7 15.491)"/>
            <path id="패스_20915" d="M683.36 357.1a2.125 2.125 0 1 1 2.125-2.125 2.127 2.127 0 0 1-2.125 2.125zm0-3.25a1.125 1.125 0 1 0 1.125 1.125 1.127 1.127 0 0 0-1.125-1.126z" class="cls-3" transform="translate(-671.235 -340.815)"/>
            <path id="패스_20916" d="M691.735 351.219v9h-17v-11h18v-1h-19v13h19v-10z" class="cls-3" transform="translate(-671.235 -340.815)"/>
        </g>
    </g>
</svg>
