<svg xmlns="http://www.w3.org/2000/svg" width="104.445" height="56.23" viewBox="0 0 104.445 56.23">
  <g id="그룹_90" data-name="그룹 90" transform="translate(-231.06 -46.604)" opacity="0.32">
    <g id="XMLID_1949_" transform="translate(231.06 46.604)">
      <g id="XMLID_1616_">
        <path id="XMLID_1691_" d="M563.841,318.65a12.41,12.41,0,0,0-15.451-11.013,1.144,1.144,0,0,0,.567,2.216,10.1,10.1,0,1,1-7.45,8.084,1.143,1.143,0,0,0-2.254-.385,12.4,12.4,0,1,0,24.588,1.1Z" transform="translate(-507.872 -296.684)" fill="#787878"/>
        <path id="XMLID_1617_" d="M312.651,329.151a12.409,12.409,0,0,0,18.712-3.138,1.144,1.144,0,1,0-1.969-1.165,10.282,10.282,0,0,1-1,1.406,10.1,10.1,0,1,1,.556-12.391,1.144,1.144,0,0,0,1.867-1.321,12.4,12.4,0,1,0-18.161,16.609Z" transform="translate(-308.287 -296.734)" fill="#787878"/>
        <path id="XMLID_1738_" d="M594.077,236.052a3.491,3.491,0,0,0,1.948-6.705c-2.581-.75-5.936.441-6.846,2.015C592.091,231.329,591.914,235.425,594.077,236.052Z" transform="translate(-551.2 -229.117)" fill="#787878"/>
        <path id="XMLID_1739_" d="M455.832,253.793c.395.054.788.12,1.172.2s.76.185,1.109.3l.1.035c-.076.177-.149.356-.218.537a12.905,12.905,0,0,0-.461,1.466,11.154,11.154,0,0,0-.275,1.54,9.167,9.167,0,0,0,.2,3.182,8.51,8.51,0,0,0,.533,1.513,8.708,8.708,0,0,0,.794,1.363A10.191,10.191,0,0,0,460.9,266.1a13.449,13.449,0,0,0,1.2.825c.1.064.207.122.311.183l.156.089.157.085c.105.055.21.114.315.168l.318.16c.426.206.855.4,1.29.566s.872.326,1.312.471a26,26,0,0,0,2.664.695c.894.184,1.792.329,2.695.425-.838-.348-1.67-.695-2.485-1.068-.2-.091-.406-.189-.607-.284-.1-.046-.2-.1-.3-.146l-.3-.146c-.2-.1-.4-.2-.594-.3l-.583-.315a22.543,22.543,0,0,1-2.212-1.382,13.786,13.786,0,0,1-1.913-1.631,8.406,8.406,0,0,1-1.406-1.9,6.435,6.435,0,0,1-.439-1.029,6.09,6.09,0,0,1-.241-1.065c-.026-.179-.038-.36-.049-.541s-.008-.362,0-.545a6.785,6.785,0,0,1,.135-1.1,9.572,9.572,0,0,1,.733-2.167c.166-.354.353-.7.554-1.045.026-.045.05-.084.073-.123l.077-.127.092-.15a1.94,1.94,0,0,0,.237-.675,1.993,1.993,0,0,0-.014-.676,2.072,2.072,0,0,0-.157-.481c-.031-.066-.059-.12-.091-.176s-.061-.1-.089-.142a2.713,2.713,0,0,0-.319-.387,3.672,3.672,0,0,0-.5-.419c-.15-.105-.291-.191-.426-.268s-.266-.146-.395-.21c-.257-.127-.507-.234-.755-.331a13.581,13.581,0,0,0-1.471-.479,17.426,17.426,0,0,0-2.954-.519c-.5-.046-1-.068-1.5-.07s-1.009.016-1.514.062a15.319,15.319,0,0,0-1.52.211c-.476.091-.951.192-1.421.314a22.154,22.154,0,0,0-2.793.9,19.113,19.113,0,0,0-2.673,1.313,14.744,14.744,0,0,0-1.271.841c-.208.153-.414.312-.618.484-.1.087-.206.174-.31.269-.051.046-.105.1-.16.147l-.085.082-.046.045-.066.068-.045.045a1.815,1.815,0,0,0-.3.423,1.8,1.8,0,0,0,.769,2.419c.036.019.1.051.149.081l.166.093c.111.064.223.13.335.2.224.134.449.272.671.412q.669.42,1.316.876c.43.3.852.615,1.259.94s.8.657,1.18,1.006a14.785,14.785,0,0,1,1.067,1.075,10.238,10.238,0,0,1,.9,1.145,6.435,6.435,0,0,1,.65,1.2,4.165,4.165,0,0,1,.3,1.221,3.425,3.425,0,0,1-.12,1.226,4.54,4.54,0,0,1-.571,1.22,6.388,6.388,0,0,1-.433.585c-.158.191-.326.379-.507.56a12.187,12.187,0,0,1-1.18,1.037c-.423.326-.868.637-1.326.933s-.933.579-1.417.852-.978.533-1.477.79c-.124.065-.25.127-.376.189l-.377.189-.761.373c.28-.046.558-.093.836-.149s.556-.111.833-.176c.554-.124,1.1-.27,1.654-.431s1.091-.35,1.632-.557a17.112,17.112,0,0,0,1.6-.715c.262-.137.523-.279.779-.435.13-.076.256-.158.383-.239s.253-.168.376-.26a8.8,8.8,0,0,0,1.412-1.244,6.58,6.58,0,0,0,1.11-1.675,5.8,5.8,0,0,0,.346-1,5.932,5.932,0,0,0,.155-1.059,6.573,6.573,0,0,0-.231-2.081,9.032,9.032,0,0,0-.74-1.85,12.98,12.98,0,0,0-1.02-1.608,17.781,17.781,0,0,0-1.18-1.421q-.621-.669-1.283-1.278t-1.359-1.164c-.2-.158-.4-.312-.6-.465a17.219,17.219,0,0,1,2.063-.946,21.2,21.2,0,0,1,2.338-.746c.4-.105.8-.192,1.207-.28a11.563,11.563,0,0,1,1.147-.177,14.394,14.394,0,0,1,2.369-.054C455.038,253.7,455.437,253.739,455.832,253.793Z" transform="translate(-422.531 -247.064)" fill="#787878"/>
      </g>
    </g>
    <g id="boat3" transform="translate(-245.241 -310.356)">
      <path id="패스_133" data-name="패스 133" d="M581.595,403.173a1.484,1.484,0,1,0,1.7,1.232A1.483,1.483,0,0,0,581.595,403.173Z" transform="translate(-21.557 -6.442)" fill="#787878"/>
      <path id="패스_134" data-name="패스 134" d="M558.905,406.763A1.484,1.484,0,1,0,560.6,408,1.483,1.483,0,0,0,558.905,406.763Z" transform="translate(-15.124 -7.46)" fill="#787878"/>
      <path id="패스_135" data-name="패스 135" d="M570.245,404.973a1.484,1.484,0,1,0,1.7,1.232A1.483,1.483,0,0,0,570.245,404.973Z" transform="translate(-18.339 -6.952)" fill="#787878"/>
      <path id="패스_136" data-name="패스 136" d="M578.452,388.857a120.216,120.216,0,0,0-22.168,1.261L553.6,382.9a3.792,3.792,0,0,0-4.012-2.443c-13.291,1.576-26.41,8.383-30.107,10.432a3.758,3.758,0,0,0-1.562,1.641l-3.769,9.479c-3.525,1.454-6.491,2.794-8.748,3.862a1.894,1.894,0,0,0-1.089,1.827l.143,3.7a1.911,1.911,0,0,0,1.906,1.784h52.985a7.341,7.341,0,0,0,4.27-1.354c5.517-3.9,11.514-12.109,15.1-17.017.609-.831,1.125-1.548,1.548-2.1a2.4,2.4,0,0,0,.258-2.479A2.368,2.368,0,0,0,578.452,388.857Zm-58.058,4.836a1.019,1.019,0,0,1,.408-.408c2.558-1.411,15.978-8.548,29.1-10.1a1.061,1.061,0,0,1,1.118.674l2.493,6.685a181.447,181.447,0,0,0-35.861,10.052Zm56.109-.5c-3.253,4.457-9.314,12.754-14.466,16.393a4.623,4.623,0,0,1-2.687.853H507.16l-.093-2.329c11.758-5.524,40.991-17.554,70.618-16.537C577.341,392.038,576.947,392.582,576.5,393.191Z" transform="translate(0 0)" fill="#787878"/>
    </g>
  </g>
</svg>
