<svg xmlns="http://www.w3.org/2000/svg" width="63" height="63.507" viewBox="0 0 63 63.507">
  <g id="그룹_197" data-name="그룹 197" transform="translate(-22 -206)">
    <g id="패스_170" data-name="패스 170" transform="translate(22 206)" fill="#fff">
      <path d="M 31.5 62.5 C 27.31480979919434 62.5 23.25506973266602 61.68043899536133 19.43354988098145 60.06407165527344 C 15.74215984344482 58.50273895263672 12.42683982849121 56.26745986938477 9.579689979553223 53.42031097412109 C 6.732540130615234 50.57315826416016 4.497260093688965 47.25783920288086 2.935930013656616 43.56644821166992 C 1.319560050964355 39.74493026733398 0.5 35.68518829345703 0.5 31.5 C 0.5 27.31480979919434 1.319560050964355 23.25506973266602 2.935930013656616 19.43354988098145 C 4.497260093688965 15.74215984344482 6.732540130615234 12.42683982849121 9.579689979553223 9.579689979553223 C 12.42683982849121 6.732540130615234 15.74215984344482 4.497260093688965 19.43354988098145 2.935930013656616 C 23.25506973266602 1.319560050964355 27.31480979919434 0.5 31.5 0.5 C 35.68518829345703 0.5 39.74493026733398 1.319560050964355 43.56644821166992 2.935930013656616 C 47.25783920288086 4.497260093688965 50.57315826416016 6.732540130615234 53.42031097412109 9.579689979553223 C 56.26745986938477 12.42683982849121 58.50273895263672 15.74215984344482 60.06407165527344 19.43354988098145 C 61.68043899536133 23.25506973266602 62.5 27.31480979919434 62.5 31.5 C 62.5 35.68518829345703 61.68043899536133 39.74493026733398 60.06407165527344 43.56644821166992 C 58.50273895263672 47.25783920288086 56.26745986938477 50.57315826416016 53.42031097412109 53.42031097412109 C 50.57315826416016 56.26745986938477 47.25783920288086 58.50273895263672 43.56644821166992 60.06407165527344 C 39.74493026733398 61.68043899536133 35.68518829345703 62.5 31.5 62.5 Z" stroke="none"/>
      <path d="M 31.5 1 C 27.3820915222168 1 23.38787841796875 1.806278228759766 19.62833023071289 3.396430969238281 C 15.99652862548828 4.932548522949219 12.7346305847168 7.131851196289062 9.933238983154297 9.933238983154297 C 7.131851196289062 12.7346305847168 4.932548522949219 15.99652862548828 3.396430969238281 19.62833023071289 C 1.806278228759766 23.38787841796875 1 27.3820915222168 1 31.5 C 1 35.61791229248047 1.806278228759766 39.61212158203125 3.396430969238281 43.37166976928711 C 4.932548522949219 47.00347137451172 7.131851196289062 50.2653694152832 9.933238983154297 53.0667610168457 C 12.7346305847168 55.86814880371094 15.99652862548828 58.06745147705078 19.62833023071289 59.60356903076172 C 23.38787841796875 61.19372177124023 27.3820915222168 62 31.5 62 C 35.61791229248047 62 39.61212158203125 61.19372177124023 43.37166976928711 59.60356903076172 C 47.00347137451172 58.06745147705078 50.2653694152832 55.86814880371094 53.0667610168457 53.0667610168457 C 55.86814880371094 50.2653694152832 58.06745147705078 47.00347137451172 59.60356903076172 43.37166976928711 C 61.19372177124023 39.61212158203125 62 35.61791229248047 62 31.5 C 62 27.3820915222168 61.19372177124023 23.38787841796875 59.60356903076172 19.62833023071289 C 58.06745147705078 15.99652862548828 55.86814880371094 12.7346305847168 53.0667610168457 9.933238983154297 C 50.2653694152832 7.131851196289062 47.00347137451172 4.932548522949219 43.37166976928711 3.396430969238281 C 39.61212158203125 1.806278228759766 35.61791229248047 1 31.5 1 M 31.5 0 C 48.89696884155273 0 63 14.10303115844727 63 31.5 C 63 48.89696884155273 48.89696884155273 63 31.5 63 C 14.10303115844727 63 0 48.89696884155273 0 31.5 C 0 14.10303115844727 14.10303115844727 0 31.5 0 Z" stroke="none" fill="#e0e0e0"/>
    </g>
    <g id="그룹_196" data-name="그룹 196" transform="translate(5 22)">
      <path id="패스_169" data-name="패스 169" d="M58.169,14.729A31.9,31.9,0,0,1,31.5,63.507,31.667,31.667,0,0,1,0,31.677,32.187,32.187,0,0,1,4.749,14.862C4.629,14.892,58.162,14.506,58.169,14.729Z" transform="translate(17 184)" fill="#fff"/>
      <g id="그룹_186" data-name="그룹 186" transform="translate(-7 184)">
        <circle id="타원_91" data-name="타원 91" cx="26" cy="26" r="26" transform="translate(30 6)" fill="#47d6be"/>
        <g id="그룹_6" data-name="그룹 6" transform="translate(46.687 23.227)">
          <g id="그룹_5" data-name="그룹 5">
            <path id="패스_59" data-name="패스 59" d="M536.655,738.109v-3.2a2.58,2.58,0,0,0-2.58-2.581H520.141a2.581,2.581,0,0,0-2.581,2.581v12.385a2.581,2.581,0,0,0,2.581,2.581h13.934a2.581,2.581,0,0,0,2.58-2.581v-4.7" transform="translate(-517.56 -732.329)" fill="#fff"/>
            <path id="패스_60" data-name="패스 60" d="M547.5,743.934l-6.663,2.256-6.663,2.257-3.491-.826,2.271-2.776,6.664-2.257,6.663-2.257.61,1.8Z" transform="translate(-523.241 -735.793)" fill="#fff" stroke="#47d6be" stroke-linecap="round" stroke-linejoin="round" stroke-width="1.5"/>
          </g>
        </g>
      </g>
    </g>
  </g>
</svg>
