<svg xmlns="http://www.w3.org/2000/svg" width="15" height="15" viewBox="0 0 15 15">
  <g id="safe_icon06" transform="translate(-1973.101 -2388.167)">
    <g id="ic_stair-4" data-name="ic stair-4" transform="translate(1973.101 2388.167)">
      <rect id="area-25" width="15" height="15" rx="2" fill="#d14943"/>
    </g>
    <g id="그룹_346" data-name="그룹 346" transform="translate(1976.448 2388.167)">
      <g id="그룹_345" data-name="그룹 345" transform="translate(-0.612 5.5)">
        <path id="패스_383" data-name="패스 383" d="M1980.644,2403.715l.064.1q.042.068.085.135l.043.065h.87l.458-1.221a.093.093,0,0,1,.091-.061.094.094,0,0,1,.086.069l.481,1.793.085-.451a.093.093,0,0,1,.092-.076h.442l.672-1.835a.094.094,0,0,1,.181.023l.281,3,1.031-3.947a.093.093,0,0,1,.183.008l.608,3.5.307-.825a.094.094,0,0,1,.088-.061h1.307l.076-.12.063-.1.061-.1a4.2,4.2,0,1,0-7.714,0Z" transform="translate(-1979.696 -2400.107)" fill="#fff"/>
        <path id="패스_384" data-name="패스 384" d="M1988.643,2405.571h-2.282l-.4,1.083a.1.1,0,0,1-.08.065.094.094,0,0,1-.1-.077l-.594-3.422-1.056,4.043a.093.093,0,0,1-.09.069h-.008a.093.093,0,0,1-.086-.084l-.292-3.114-.552,1.508a.093.093,0,0,1-.088.062h-.43l-.145.777a.094.094,0,0,1-.183.009l-.512-1.909-.378,1.009a.093.093,0,0,1-.088.061h-.811l0,0h-1.177a.087.087,0,0,0-.088.075.084.084,0,0,0,.083.093h1.124a.329.329,0,0,1,.27.14l0,0q.083.118.168.235t.187.252q.1.135.206.268t.224.281c.08.1.16.2.241.291s.171.2.259.3.183.2.276.3.193.205.291.306.2.2.307.3.214.2.322.3.223.2.337.3.232.194.351.288l.1.075.1-.075q.178-.141.351-.288t.337-.3q.164-.149.323-.3c.1-.1.207-.2.307-.3s.2-.2.292-.306.185-.2.275-.3.173-.2.259-.3.162-.193.241-.291.15-.187.224-.281.138-.178.206-.268.125-.167.187-.252.112-.156.167-.235l.077-.112a.266.266,0,0,1,.218-.115h1.14a.083.083,0,0,0,.083-.092A.086.086,0,0,0,1988.643,2405.571Z" transform="translate(-1979.201 -2401.553)" fill="#fff"/>
      </g>
      <g id="G-Hub" transform="translate(0.924 1)" style="isolation: isolate">
        <text id="AED" transform="translate(3 3)" fill="#fff" font-size="3" font-family="SegoeUI, Segoe UI" letter-spacing="-0.02em"><tspan x="-2.718" y="0">AED</tspan></text>
      </g>
    </g>
  </g>
</svg>
