<svg xmlns="http://www.w3.org/2000/svg" width="15" height="15" viewBox="0 0 15 15">
  <g id="safe_icon05" transform="translate(-2363.983 -2465.778)">
    <rect id="area-25" width="15" height="15" rx="2" transform="translate(2363.983 2465.778)" fill="#0067ce"/>
    <g id="그룹_331" data-name="그룹 331" transform="translate(2365.229 2470.422)">
      <g id="그룹_323" data-name="그룹 323" transform="translate(2.031)">
        <g id="그룹_321" data-name="그룹 321" transform="translate(8.846)">
          <line id="선_28" data-name="선 28" x1="0.154" y1="0.112" fill="#fff"/>
        </g>
        <g id="그룹_322" data-name="그룹 322" transform="translate(0 0.447)">
          <path id="패스_367" data-name="패스 367" d="M2378.679,2476.594l-3.9-.635-3.952.639-.29,1.292.446,1.749,3.8,1.586,3.756-1.586.447-1.749Z" transform="translate(-2370.536 -2475.959)" fill="#fff"/>
        </g>
      </g>
      <g id="그룹_324" data-name="그룹 324" transform="translate(3.345 1.361)">
        <path id="패스_368" data-name="패스 368" d="M2376.1,2477.788l-2.936.624,2.936-.5,2.936.5Z" transform="translate(-2373.163 -2477.788)" fill="#0067ce"/>
      </g>
      <g id="그룹_325" data-name="그룹 325" transform="translate(3.345 2.608)">
        <path id="패스_369" data-name="패스 369" d="M2376.1,2480.456l-2.936-.173,2.936.375,2.936-.375Z" transform="translate(-2373.163 -2480.282)" fill="#0067ce"/>
      </g>
      <g id="그룹_326" data-name="그룹 326" transform="translate(3.345 3.241)">
        <path id="패스_370" data-name="패스 370" d="M2376.888,2482.344h-1.577l-2.148-.8,2.131.935h1.611l2.131-.935Z" transform="translate(-2373.163 -2481.547)" fill="#0067ce"/>
      </g>
      <g id="그룹_328" data-name="그룹 328" transform="translate(0 0.117)">
        <g id="그룹_327" data-name="그룹 327">
          <path id="패스_371" data-name="패스 371" d="M2369.008,2479.332a4.5,4.5,0,0,1-2.275-1.719,1.779,1.779,0,0,1,.009-1.867.947.947,0,0,1,.606-.419,1.139,1.139,0,0,1,.857.159,2.486,2.486,0,0,1,.714.81l-.152.084a2.322,2.322,0,0,0-.656-.749.964.964,0,0,0-.727-.135.775.775,0,0,0-.5.343,1.611,1.611,0,0,0,0,1.693,4.425,4.425,0,0,0,2.189,1.642Z" transform="translate(-2366.473 -2475.3)" fill="#fff"/>
        </g>
      </g>
      <g id="그룹_330" data-name="그룹 330" transform="translate(9.908 0.117)">
        <g id="그룹_329" data-name="그룹 329">
          <path id="패스_372" data-name="패스 372" d="M2386.357,2479.332a4.5,4.5,0,0,0,2.274-1.719,1.778,1.778,0,0,0-.008-1.867.947.947,0,0,0-.606-.419,1.139,1.139,0,0,0-.857.159,2.48,2.48,0,0,0-.714.81l.152.084a2.322,2.322,0,0,1,.656-.749.963.963,0,0,1,.726-.135.775.775,0,0,1,.5.343,1.612,1.612,0,0,1,0,1.693,4.428,4.428,0,0,1-2.189,1.642Z" transform="translate(-2386.29 -2475.3)" fill="#fff"/>
        </g>
      </g>
    </g>
  </g>
</svg>
