<svg xmlns="http://www.w3.org/2000/svg" width="63.735" height="63.507" viewBox="0 0 63.735 63.507">
  <g id="그룹_197" data-name="그룹 197" transform="translate(-21.265 -206)">
    <g id="그룹_198" data-name="그룹 198">
      <g id="그룹_199" data-name="그룹 199">
        <g id="패스_170" data-name="패스 170" transform="translate(22 206)" fill="#fff">
          <path d="M 31.5 62.5 C 27.31480979919434 62.5 23.25506973266602 61.68043899536133 19.43354988098145 60.06407165527344 C 15.74215984344482 58.50273895263672 12.42683982849121 56.26745986938477 9.579689979553223 53.42031097412109 C 6.732540130615234 50.57315826416016 4.497260093688965 47.25783920288086 2.935930013656616 43.56644821166992 C 1.319560050964355 39.74493026733398 0.5 35.68518829345703 0.5 31.5 C 0.5 27.31480979919434 1.319560050964355 23.25506973266602 2.935930013656616 19.43354988098145 C 4.497260093688965 15.74215984344482 6.732540130615234 12.42683982849121 9.579689979553223 9.579689979553223 C 12.42683982849121 6.732540130615234 15.74215984344482 4.497260093688965 19.43354988098145 2.935930013656616 C 23.25506973266602 1.319560050964355 27.31480979919434 0.5 31.5 0.5 C 35.68518829345703 0.5 39.74493026733398 1.319560050964355 43.56644821166992 2.935930013656616 C 47.25783920288086 4.497260093688965 50.57315826416016 6.732540130615234 53.42031097412109 9.579689979553223 C 56.26745986938477 12.42683982849121 58.50273895263672 15.74215984344482 60.06407165527344 19.43354988098145 C 61.68043899536133 23.25506973266602 62.5 27.31480979919434 62.5 31.5 C 62.5 35.68518829345703 61.68043899536133 39.74493026733398 60.06407165527344 43.56644821166992 C 58.50273895263672 47.25783920288086 56.26745986938477 50.57315826416016 53.42031097412109 53.42031097412109 C 50.57315826416016 56.26745986938477 47.25783920288086 58.50273895263672 43.56644821166992 60.06407165527344 C 39.74493026733398 61.68043899536133 35.68518829345703 62.5 31.5 62.5 Z" stroke="none"/>
          <path d="M 31.5 1 C 27.3820915222168 1 23.38787841796875 1.806278228759766 19.62833023071289 3.396430969238281 C 15.99652862548828 4.932548522949219 12.7346305847168 7.131851196289062 9.933238983154297 9.933238983154297 C 7.131851196289062 12.7346305847168 4.932548522949219 15.99652862548828 3.396430969238281 19.62833023071289 C 1.806278228759766 23.38787841796875 1 27.3820915222168 1 31.5 C 1 35.61791229248047 1.806278228759766 39.61212158203125 3.396430969238281 43.37166976928711 C 4.932548522949219 47.00347137451172 7.131851196289062 50.2653694152832 9.933238983154297 53.0667610168457 C 12.7346305847168 55.86814880371094 15.99652862548828 58.06745147705078 19.62833023071289 59.60356903076172 C 23.38787841796875 61.19372177124023 27.3820915222168 62 31.5 62 C 35.61791229248047 62 39.61212158203125 61.19372177124023 43.37166976928711 59.60356903076172 C 47.00347137451172 58.06745147705078 50.2653694152832 55.86814880371094 53.0667610168457 53.0667610168457 C 55.86814880371094 50.2653694152832 58.06745147705078 47.00347137451172 59.60356903076172 43.37166976928711 C 61.19372177124023 39.61212158203125 62 35.61791229248047 62 31.5 C 62 27.3820915222168 61.19372177124023 23.38787841796875 59.60356903076172 19.62833023071289 C 58.06745147705078 15.99652862548828 55.86814880371094 12.7346305847168 53.0667610168457 9.933238983154297 C 50.2653694152832 7.131851196289062 47.00347137451172 4.932548522949219 43.37166976928711 3.396430969238281 C 39.61212158203125 1.806278228759766 35.61791229248047 1 31.5 1 M 31.5 0 C 48.89696884155273 0 63 14.10303115844727 63 31.5 C 63 48.89696884155273 48.89696884155273 63 31.5 63 C 14.10303115844727 63 0 48.89696884155273 0 31.5 C 0 14.10303115844727 14.10303115844727 0 31.5 0 Z" stroke="none" fill="#e0e0e0"/>
        </g>
        <path id="패스_169" data-name="패스 169" d="M61.637,21.45C62.893,26.131,63,25.348,63,31.677a31.667,31.667,0,0,1-31.5,31.83c-17.4,0-32.235-14.251-32.235-31.83,0-6.065,1.07-7.21,2.352-10.226C1.5,21.481,61.63,21.228,61.637,21.45Z" transform="translate(22 206)" fill="#fff"/>
        <circle id="타원_91" data-name="타원 91" cx="26" cy="26" r="26" transform="translate(28 212)" fill="#47d6be"/>
        <path id="Log-in" d="M38,34a11,11,0,0,0-22,0h1.693a9.31,9.31,0,0,1,18.615,0ZM27,21.586a5.795,5.795,0,1,0-5.923-5.794A5.86,5.86,0,0,0,27,21.586Zm0-1.656a4.139,4.139,0,1,1,4.231-4.138A4.185,4.185,0,0,1,27,19.93Z" transform="translate(27 214)" fill="#fff" fill-rule="evenodd"/>
      </g>
    </g>
  </g>
</svg>
