<svg id="chair_black_24dp" xmlns="http://www.w3.org/2000/svg" width="24" height="24" viewBox="0 0 24 24">
  <g id="그룹_7" data-name="그룹 7">
    <path id="패스_8" data-name="패스 8" d="M0,0H24V24H0Z" fill="none"/>
  </g>
  <g id="그룹_8" data-name="그룹 8">
    <path id="패스_9" data-name="패스 9" d="M20,8V6a3.009,3.009,0,0,0-3-3H7A3.009,3.009,0,0,0,4,6V8a3.009,3.009,0,0,0-3,3v5a3.009,3.009,0,0,0,3,3v1a1,1,0,0,0,2,0V19H18v1a1,1,0,0,0,2,0V19a3.009,3.009,0,0,0,3-3V11A3.009,3.009,0,0,0,20,8ZM6,6A1,1,0,0,1,7,5H17a1,1,0,0,1,1,1V8.78A2.986,2.986,0,0,0,17,11v2H7V11A2.986,2.986,0,0,0,6,8.78ZM21,16a1,1,0,0,1-1,1H4a1,1,0,0,1-1-1V11a1,1,0,0,1,2,0v4H19V11a1,1,0,0,1,2,0Z" fill="#fff"/>
  </g>
</svg>
