<svg xmlns="http://www.w3.org/2000/svg" width="25.357" height="23.426" viewBox="0 0 25.357 23.426">
  <g id="그룹_2" data-name="그룹 2" transform="translate(-97.411 -384.655)">
    <g id="패스_4" data-name="패스 4" transform="translate(103.484 395.195)" fill="none">
      <path d="M4.24,0H6.963a4.3,4.3,0,0,1,4.3,4.3V6.737a4.782,4.782,0,0,1,0,.618H-.061a5.576,5.576,0,0,1,0-.618V4.3A4.3,4.3,0,0,1,4.24,0Z" stroke="none"/>
      <path d="M 4.23983097076416 0.8000040054321289 C 2.309741020202637 0.8000040054321289 0.7394905090332031 2.370254039764404 0.7394905090332031 4.300344467163086 L 0.7394905090332031 6.555524349212646 L 10.46373081207275 6.555524349212646 L 10.46373081207275 4.300344467163086 C 10.46373081207275 2.370254039764404 8.89348030090332 0.8000040054321289 6.963390827178955 0.8000040054321289 L 4.23983097076416 0.8000040054321289 M 4.23983097076416 4.291534423828125e-06 L 6.963390827178955 4.291534423828125e-06 C 9.338400840759277 4.291534423828125e-06 11.26373100280762 1.925333976745605 11.26373100280762 4.300344467163086 L 11.26373100280762 6.737204074859619 C 11.26373100280762 6.915334224700928 11.29035091400146 7.139173984527588 11.26373100280762 7.355524063110352 L -0.06050872802734375 7.355524063110352 C -0.08328914642333984 7.198184013366699 -0.06050872802734375 6.94620418548584 -0.06050872802734375 6.737204074859619 L -0.06050872802734375 4.300344467163086 C -0.06050872802734375 1.925333976745605 1.86482048034668 4.291534423828125e-06 4.23983097076416 4.291534423828125e-06 Z" stroke="none" fill="#000"/>
    </g>
    <g id="타원_1" data-name="타원 1" transform="translate(104.697 388.308)" fill="#fff" stroke="#000" stroke-width="0.8">
      <circle cx="4.5" cy="4.5" r="4.5" stroke="none"/>
      <circle cx="4.5" cy="4.5" r="4.1" fill="none"/>
    </g>
    <rect id="사각형_1" data-name="사각형 1" width="6" height="8" rx="3" transform="translate(112.697 396.308)" fill="#fff"/>
    <path id="패스_3" data-name="패스 3" d="M6.441,0H0V6.442" transform="translate(98.056 407.581) rotate(-90)" fill="none" stroke="#000" stroke-width="1"/>
    <path id="패스_10" data-name="패스 10" d="M6.441,0H0V6.442" transform="translate(97.911 385.418)" fill="none" stroke="#000" stroke-width="1"/>
    <path id="패스_11" data-name="패스 11" d="M6.441,0H0V6.442" transform="translate(122.123 385.155) rotate(90)" fill="none" stroke="#000" stroke-width="1"/>
    <path id="패스_12" data-name="패스 12" d="M6.441,0H0V6.442" transform="translate(122.268 407.554) rotate(180)" fill="none" stroke="#000" stroke-width="1"/>
    <g id="그룹_1" data-name="그룹 1" transform="translate(112.862 395.674)">
      <path id="패스_5" data-name="패스 5" d="M225.18,520.615" transform="translate(-221.548 -511.969)" fill="none" stroke="#040404" stroke-linecap="round" stroke-width="0.6"/>
      <path id="패스_6" data-name="패스 6" d="M200.166,463.363s.307-3.061,2.826-3.061a2.908,2.908,0,0,1,2.968,3.088v1.068" transform="translate(-200.119 -460.302)" fill="none" stroke="#040404" stroke-linecap="round" stroke-width="0.6"/>
      <path id="패스_7" data-name="패스 7" d="M212.343,471.559s-.094,2.565-2.375,2.565a2.248,2.248,0,0,1-2.351-2.565V469.35a1.9,1.9,0,0,1,1.924-1.758c1.782,0,1.686,1.948,1.686,1.948" transform="translate(-206.502 -466.547)" fill="none" stroke="#040404" stroke-linecap="round" stroke-width="0.6"/>
      <path id="패스_8" data-name="패스 8" d="M217.181,477.25s.383,2.737-1.211,2.737a1.4,1.4,0,0,1-1.425-1.615v-1.805s-.024-.855.76-.855.665.855.665.855v2.209" transform="translate(-212.433 -473.502)" fill="none" stroke="#040404" stroke-linecap="round" stroke-width="0.6"/>
      <path id="패스_9" data-name="패스 9" d="M199.888,486.975a11.115,11.115,0,0,0,.057,2.507,2.679,2.679,0,0,0,.392,1.092,3.293,3.293,0,0,0,2.558,1.407" transform="translate(-199.842 -483.295)" fill="none" stroke="#040404" stroke-linecap="round" stroke-width="0.6"/>
    </g>
  </g>
</svg>
