<svg id="home_repair_service_black_24dp" xmlns="http://www.w3.org/2000/svg" width="24" height="24" viewBox="0 0 24 24">
  <g id="그룹_4" data-name="그룹 4">
    <rect id="사각형_1" data-name="사각형 1" width="24" height="24" fill="none"/>
  </g>
  <g id="그룹_6" data-name="그룹 6">
    <g id="그룹_5" data-name="그룹 5">
      <path id="패스_5" data-name="패스 5" d="M20,8H17V6a2.006,2.006,0,0,0-2-2H9A2.006,2.006,0,0,0,7,6V8H4a2.006,2.006,0,0,0-2,2V20H22V10A2.006,2.006,0,0,0,20,8ZM9,6h6V8H9ZM20,18H4V15H6v1H8V15h8v1h2V15h2Zm-2-5V12H16v1H8V12H6v1H4V10H20v3Z" fill="#757575"/>
    </g>
  </g>
</svg>
