<svg xmlns="http://www.w3.org/2000/svg" width="36" height="36" viewBox="0 0 36 36">
    <g>
        <path fill="rgba(232,71,200,0)" d="M0 0H36V36H0z" transform="translate(-664.61 -325.153) translate(664.61 325.153)"/>
        <path fill="#333" d="M691.2 348.047l-1.218-2.194h-1.143l1.487 2.679H674.61l1.886-3.4v-4.991a6.142 6.142 0 0 1 6.284-5.991 5.528 5.528 0 0 1 5.656 5.392v4.308h1v-4.308a6.536 6.536 0 0 0-6.656-6.392 7.15 7.15 0 0 0-7.284 6.991v4.732l-1.76 3.171-.825 1.485h6.073a3.486 3.486 0 0 0 6.964 0h6.073zm-8.73 3.806a2.5 2.5 0 0 1-2.482-2.321h4.964a2.5 2.5 0 0 1-2.486 2.321z" transform="translate(-664.61 -325.153)"/>
    </g>
</svg>
