<svg id="ic_appbar_filter" xmlns="http://www.w3.org/2000/svg" width="36" height="36" viewBox="0 0 36 36">
  <path id="패스_1365" data-name="패스 1365" d="M0,0H36V36H0Z" fill="rgba(243,156,159,0)"/>
  <g id="그룹_352" data-name="그룹 352">
    <path id="패스_1366" data-name="패스 1366" d="M676.829,377.059l5.876,6.713.265.3v7.158l2.118-1.059v-6.1l.265-.3,4.489-5.125h1.4l-5.093,5.824v6.353l-4.235,2.118V384.47L674.5,376h19.059l-.921,1.059Z" transform="translate(-666.029 -366.471)" fill="gray"/>
    <path id="패스_1367" data-name="패스 1367" d="M692.638,377.059l.921-1.059H674.5l7.412,8.471v8.471l4.235-2.118v-6.353l5.093-5.824h-1.4l-4.489,5.125-.265.3v6.1l-2.118,1.059v-7.158l-.265-.3-5.876-6.713Z" transform="translate(-666.029 -366.471)" fill="#0094da"/>
  </g>
</svg>
