<svg xmlns="http://www.w3.org/2000/svg" xmlns:xlink="http://www.w3.org/1999/xlink" width="36" height="36" viewBox="0 0 36 36">
  <defs>
    <clipPath id="clip-path">
      <rect width="36" height="36" fill="none"/>
    </clipPath>
  </defs>
  <g id="ic_appbar_search_meetingroom" clip-path="url(#clip-path)">
    <g id="ic_appbar_search_meetingroom-2" data-name="ic_appbar_search_meetingroom" transform="translate(-232.359 -232.632)">
      <rect id="Rectangle_10853" data-name="Rectangle 10853" width="36" height="36" transform="translate(232.359 232.632)" fill="none"/>
      <g id="그룹_105704" data-name="그룹 105704" transform="translate(-2)">
        <g id="그룹_105702" data-name="그룹 105702" transform="translate(0 2)">
          <path id="패스_20797" data-name="패스 20797" d="M243.211,253.052h14.153v-3.637a5.988,5.988,0,0,1-4.034-2.284h-7.745v-1H252.7a5.972,5.972,0,0,1-.633-2.671c0-.155.012-.308.023-.46h-8.881Zm2.374-3.37h9.366v1h-9.366Z" fill="none"/>
          <path id="패스_20798" data-name="패스 20798" d="M257.364,249.415v3.637H243.211V243h8.881a5.878,5.878,0,0,1,.164-1H240.323v1h1.964v11h7.524v3.318h-7.024v.989h15v-.989h-7.023V254h7.523v-4.551c-.073,0-.144.011-.218.011A6.062,6.062,0,0,1,257.364,249.415Z" fill="#fff"/>
          <rect id="사각형_114960" data-name="사각형 114960" width="9.366" height="1" transform="translate(245.585 249.682)" fill="#fff"/>
          <path id="패스_20799" data-name="패스 20799" d="M245.585,247.131h7.745a6,6,0,0,1-.628-1h-7.117Z" fill="#fff"/>
        </g>
        <path id="패스_20800" data-name="패스 20800" d="M263.937,249.244l-2.489-2.843a4.481,4.481,0,1,0-.733.681l2.471,2.821Zm-9.368-5.784a3.5,3.5,0,1,1,3.5,3.5A3.5,3.5,0,0,1,254.569,243.46Z" transform="translate(0 2)" fill="#fff"/>
      </g>
    </g>
  </g>
</svg>
