<svg xmlns="http://www.w3.org/2000/svg" width="18" height="18" viewBox="0 0 18 18">
    <defs>
        <style>
            .cls-3{fill:#333}
        </style>
    </defs>
    <g id="ic_btn_chaged" transform="translate(-674.071 -375.429)">
        <path id="area" fill="rgba(255,255,255,0)" d="M0 0H18V18H0z" transform="translate(674.071 375.429)"/>
        <circle id="타원_43200" cx="5.5" cy="5.5" r="5.5" fill="none" transform="translate(677.571 378.929)"/>
        <g id="그룹_106076">
            <path id="패스_20896" d="M682.071 380.08v1.349l3-2-3-2v1.6a5.491 5.491 0 0 0-2.839 9.336l.863-.582a4.448 4.448 0 0 1 1.976-7.7z" class="cls-3"/>
            <path id="패스_20897" d="M688.571 384.429a5.48 5.48 0 0 0-1.661-3.931l-.862.582a4.449 4.449 0 0 1-1.977 7.7v-1.349l-3 2 3 2v-1.6a5.506 5.506 0 0 0 4.5-5.402z" class="cls-3"/>
        </g>
    </g>
</svg>
