<svg xmlns="http://www.w3.org/2000/svg" width="28" height="28" viewBox="0 0 28 28">
    <g>
        <g transform="translate(-613 -186) translate(616.92 186.84)">
            <path fill="#ed5252" d="M10.08 26.347a43.63 43.63 0 0 1-7.558-8.38A13.478 13.478 0 0 1 0 10.8a11.873 11.873 0 0 1 .831-4.453 10.271 10.271 0 0 1 2.224-3.406 9.861 9.861 0 0 1 14.049 0 10.271 10.271 0 0 1 2.225 3.406 11.873 11.873 0 0 1 .831 4.453 13.478 13.478 0 0 1-2.521 7.165 43.626 43.626 0 0 1-7.558 8.38zm0-20.883a4.543 4.543 0 1 0 4.582 4.542 4.568 4.568 0 0 0-4.582-4.542z"/>
            <circle cx="4.76" cy="4.76" r="4.76" fill="#fff" transform="translate(5.32 5.32)"/>
        </g>
    </g>
</svg>
