<svg xmlns="http://www.w3.org/2000/svg" width="36" height="36" viewBox="0 0 36 36">
  <g id="ic_popup_option" transform="translate(-30 -12)">
    <rect id="사각형_10563" data-name="사각형 10563" width="36" height="36" transform="translate(30 12)" fill="#fff" opacity="0"/>
    <g id="그룹_105278" data-name="그룹 105278" transform="translate(1 2)">
      <path id="합치기_1872" data-name="합치기 1872" d="M5940,1093a1,1,0,1,1,1,1A1,1,0,0,1,5940,1093Zm0-6a1,1,0,1,1,1,1A1,1,0,0,1,5940,1087Zm0-6a1,1,0,1,1,1,1A1,1,0,0,1,5940,1081Z" transform="translate(-5894 -1059)" fill="#333"/>
    </g>
  </g>
</svg>
