<svg xmlns="http://www.w3.org/2000/svg" width="28" height="28" viewBox="0 0 28 28">
    <defs>
        <style>
            .cls-3{fill:#333}
        </style>
    </defs>
    <g id="ic_setting_version" transform="translate(-.001 .001)">
        <path id="area" fill="rgba(240,192,217,0)" d="M0 0H28V28H0z" transform="translate(.001 -.001)"/>
        <g id="ic" transform="translate(2.001 2)">
            <path id="area-2" fill="rgba(255,183,188,0)" d="M0 0H24V24H0z" transform="translate(0 -.001)"/>
            <path id="패스_20878" d="M642.735 389.319v-1.289h1.3v1.289zm0-2.157v-6.843h1.3v6.843z" class="cls-3" transform="rotate(180 327.667 198.411)"/>
            <circle id="타원_43204" cx="9" cy="9" r="9" fill="none" transform="translate(3 2.999)"/>
            <path id="패스_20917" d="M650.259 379.2l-.713.714a8.021 8.021 0 1 1-1.414-1.415l.713-.713a9.023 9.023 0 1 0 1.414 1.414z" class="cls-3" transform="translate(-631.235 -372.816)"/>
        </g>
    </g>
</svg>
