<svg xmlns="http://www.w3.org/2000/svg" width="34" height="34" viewBox="0 0 34 34">
    <defs>
        <style>
            .cls-2{isolation:isolate}.cls-3{fill:#333}
        </style>
    </defs>
    <g id="ic_side_menu_qeustion" transform="translate(-422.36 -100.291)">
        <path id="area" fill="#fff" d="M0 0H34V34H0z" opacity="0.003" transform="translate(422.36 100.291)"/>
        <g id="그룹_105256" transform="translate(-243.086 -270.914)">
            <g id="_" class="cls-2" transform="translate(679.464 383.169)">
                <g id="그룹_106189" class="cls-2">
                    <path id="패스_20982" d="M682.29 391.349v-.621c0-.9.257-1.323 1.243-2.31s1.311-1.2 1.311-2.054v-.176c0-.69-.487-1.285-1.608-1.285a2.982 2.982 0 0 0-2.189.973l-.811-.932a3.89 3.89 0 0 1 2.973-1.23c1.877 0 2.987.987 2.987 2.46v.19c0 1.323-.839 1.973-1.677 2.769a2.023 2.023 0 0 0-.85 1.635v.58zm-.068 1.259h1.54v1.554h-1.54z" class="cls-3" transform="translate(-680.236 -383.715)"/>
                </g>
            </g>
            <path id="패스_20983" d="M690.1 381.781l-.765.765a8.961 8.961 0 1 1-1.28-1.268l.768-.768a10.047 10.047 0 1 0 1.277 1.271z" class="cls-3"/>
        </g>
    </g>
</svg>
