<svg xmlns="http://www.w3.org/2000/svg" width="34" height="34" viewBox="0 0 34 34">
    <defs>
        <style>
            .cls-2{fill:#333}
        </style>
    </defs>
    <g id="ic_sidemenu_visitor" transform="translate(-304.36 -95.291)">
        <path id="area" fill="none" d="M0 0H34V34H0z" transform="translate(304.36 95.291)"/>
        <g id="ic">
            <path id="패스_20691" d="M321.36 112.291a2.5 2.5 0 1 1 2.5-2.5 2.5 2.5 0 0 1-2.5 2.5zm0-4a1.5 1.5 0 1 0 1.5 1.5 1.5 1.5 0 0 0-1.5-1.5z" class="cls-2"/>
            <path id="패스_20692" d="M326.86 119.291h-11v-6h11zm-10-1h9v-4h-9z" class="cls-2"/>
            <path id="패스_20693" d="M329.86 108.291v10h-17v-12h18v-1h-19v14h19v-11z" class="cls-2"/>
        </g>
    </g>
</svg>
