<svg xmlns="http://www.w3.org/2000/svg" width="28" height="28" viewBox="0 0 28 28">
    <defs>
        <style>
            .cls-3{fill:#333}
        </style>
    </defs>
    <g id="ic_title_visit_reason" transform="translate(-.001 -.441)">
        <path id="area" fill="rgba(240,192,217,0)" d="M0 0H28V28H0z" transform="translate(.001 .441)"/>
        <g id="ic" transform="translate(2.001 2)">
            <path id="area-2" fill="rgba(255,183,188,0)" d="M0 0H24V24H0z" transform="translate(0 .441)"/>
            <path id="패스_20920" d="M729.137 388.816v5h-14v-16h15v-1h-16v18h16v-6z" class="cls-3" transform="translate(-710.235 -373.816)"/>
            <g id="패스_20893" transform="translate(13.06 4.534)">
                <path id="패스_20921" fill="none" d="M731.2 378.35l2.973 2.676-7.871 8.742-3 .307.029-2.984z" transform="translate(-723.295 -378.35)"/>
                <path id="패스_20922" d="M731.269 379.762l-6.949 7.718-.014 1.487 1.5-.154 6.944-7.713-1.486-1.338m-.074-1.412l2.973 2.676-7.872 8.742-3 .307.029-2.983z" class="cls-3" transform="translate(-723.295 -378.35)"/>
            </g>
            <path id="합치기_1877" d="M717.416 390.057v-1h6v1zm0-4v-1h6v1zm0-4v-1h9.219v1z" class="cls-3" transform="translate(-710.235 -373.816)"/>
        </g>
    </g>
</svg>
