<svg xmlns="http://www.w3.org/2000/svg" width="48" height="48" viewBox="0 0 48 48">
    <defs>
        <style>
            .cls-2{fill:#fff}
        </style>
    </defs>
    <g id="img_pr_team_defult" transform="translate(-1640 -160)">
        <circle id="bg" cx="24" cy="24" r="24" fill="#dbdbdb" transform="translate(1640 160)"/>
        <g id="그룹_106086" transform="translate(3 4)">
            <g id="ic" transform="translate(1658 174.396)">
                <path id="빼기_4" d="M683.538 384.042a3.85 3.85 0 1 1 3.85-3.85 3.85 3.85 0 0 1-3.85 3.85zm0-6.6a2.75 2.75 0 1 0 2.75 2.75 2.75 2.75 0 0 0-2.75-2.75z" class="cls-2" transform="translate(-676.388 -376.342)"/>
                <path id="빼기_6" d="M690.987 392.041h-14.3v-7.7h14.3v1.1h-13.2v5.5h12.1v-3.3h1.1z" class="cls-2" transform="translate(-676.688 -375.543)"/>
            </g>
            <g id="ic-2" transform="translate(1649 169)">
                <path id="빼기_4-2" d="M683.538 384.042a3.85 3.85 0 1 1 3.85-3.85 3.85 3.85 0 0 1-3.85 3.85zm0-6.6a2.75 2.75 0 1 0 2.75 2.75 2.75 2.75 0 0 0-2.75-2.75z" class="cls-2" transform="translate(-676.388 -376.342)"/>
                <path id="빼기_6-2" d="M684.491 392.041h-7.8v-7.7H687.9v1.1h-10.112v5.5h6.7z" class="cls-2" transform="translate(-676.688 -375.543)"/>
            </g>
        </g>
    </g>
</svg>
