<svg xmlns="http://www.w3.org/2000/svg" width="82" height="24" viewBox="0 0 82 24">
    <defs>
        <clipPath id="hnfw0x2vga">
            <path fill="#fff" d="M0 0H81V18.212H0z"/>
        </clipPath>
    </defs>
    <g>
        <g>
            <g clip-path="url(#hnfw0x2vga)" transform="translate(-50 -70) translate(50 73)">
                <path d="M25.83 16.723a2.259 2.259 0 0 0-2.285 2.233v4.788c0 1.232.877 2.074 2.34 2.233h6.943c1.474-.159 2.34-1 2.34-2.233v-3.607h-7.63v2.315h5.2v.561a1.011 1.011 0 0 1-1.025.965h-4.789a1 1 0 0 1-1.024-.965v-3.3a1.045 1.045 0 0 1 1.05-1h8.21v-2z" transform="translate(-10.946 -7.774)"/>
                <path d="M79.31 16.752H72.1c-1.514.156-2.429 1-2.429 2.222v4.77c.152 1.4.941 2.078 2.487 2.223h7.152c1.634-.083 2.428-.994 2.428-2.223v-4.77c0-1.227-.962-2.067-2.428-2.222m-.044 6.207a1.01 1.01 0 0 1-1.071.935h-4.974a1.011 1.011 0 0 1-1.071-.935v-3.085a1.059 1.059 0 0 1 1.126-1.05H78.2a1.011 1.011 0 0 1 1.071.936z" transform="translate(-32.39 -7.788)"/>
                <path d="M0 0H2.455V9.212H0z" transform="translate(65.057 8.975)"/>
                <path d="M104.265 16.957l-4.033 6.7-4.032-6.7h-2.782l5.5 9.131h2.633l5.5-9.131z" transform="translate(-43.428 -7.883)"/>
                <path d="M51.8 23.954v-7.02h-2.348v8.976h9.919v-1.956z" transform="translate(-22.989 -7.872)"/>
                <path d="M137.541 20.125h1.684c1.355.079 2.29.587 2.29 2.235v1.383c0 1.7-.94 2.168-2.294 2.248h-8.763v-2.023h8.07s.472.051.459-.528v-.494c0-.545-.428-.512-.428-.512h-6.384a1.982 1.982 0 0 1-2-2.181v-1.262c-.021-1.72 1.011-2.248 2.358-2.248h8.74v2.016h-7.938s-.608-.055-.608.456c0 .074-.008.418-.008.512 0 .458.687.395.687.395z" transform="translate(-60.515 -7.784)"/>
                <path d="M4.229 2.407h-2.88V0H0v6.159h1.349v-2.55h2.88v2.55h1.352V0H4.229z"/>
                <path d="M63.475 1.553a.452.452 0 0 1 .052-.273c.06-.079.164-.069.292-.075h2.518V3h-2.862zm0 2.639h2.863v1.966h1.352V0h-4.207a1.393 1.393 0 0 0-1.056.354 1.405 1.405 0 0 0-.3.956v4.848h1.351z" transform="translate(-28.88)"/>
                <path d="M38.316 1.2h2.536c.124.006.225 0 .288.075a.478.478 0 0 1 .054.273v4.61h1.346V1.311a1.374 1.374 0 0 0-.3-.956A1.392 1.392 0 0 0 41.183 0h-4.216v6.158h1.349z" transform="translate(-17.185)"/>
                <path d="M29.589 5.809a1.384 1.384 0 0 0 .3-.965V0h-1.348v4.606a.481.481 0 0 1-.051.272c-.066.078-.169.076-.292.077h-2.535V0h-1.347v6.159h4.216a1.394 1.394 0 0 0 1.057-.35" transform="translate(-11.304)"/>
                <path d="M53.509 4.955h-2.538V1.2h2.538c.122.006.227 0 .292.074a.5.5 0 0 1 .05.275v3.057a.494.494 0 0 1-.05.272c-.065.078-.17.076-.292.077m1.387.854a1.381 1.381 0 0 0 .3-.965V1.313a1.373 1.373 0 0 0-.3-.959A1.391 1.391 0 0 0 53.84 0h-4.214v6.159h4.214a1.391 1.391 0 0 0 1.056-.35" transform="translate(-23.07)"/>
                <path d="M14.558 2.7L12.917 0h-1.605l2.518 3.881v2.278h1.446V3.881L17.792 0h-1.6z" transform="translate(-5.259)"/>
                <path d="M76.5 4.955V0h-1.44v6.159h1.44z" transform="translate(-34.892)"/>
            </g>
        </g>
    </g>
</svg>
