<svg xmlns="http://www.w3.org/2000/svg" width="24" height="24" viewBox="0 0 24 24">
    <defs>
        <clipPath id="clip-path"/>
        <style>
            .cls-5{stroke:none}
        </style>
    </defs>
    <g id="img_screen_loading" transform="translate(-160 -360)">
        <g id="타원_42985" fill="none" stroke="#000" stroke-width="4px" opacity="0.1" transform="translate(160 360)">
            <circle cx="12" cy="12" r="12" class="cls-5"/>
            <circle cx="12" cy="12" r="10"/>
        </g>
        <g id="마스크_그룹_53" clip-path="url(#clip-path)" transform="translate(172 360)">
            <g id="패스_20643" fill="none" opacity="0.2">
                <path d="M12 0A12 12 0 1 1 0 12 12 12 0 0 1 12 0z" class="cls-5" transform="translate(-12)"/>
                <path fill="#1a1a1a" d="M12 4c-4.411 0-8 3.589-8 8s3.589 8 8 8 8-3.589 8-8-3.589-8-8-8m0-4c6.627 0 12 5.373 12 12s-5.373 12-12 12S0 18.627 0 12 5.373 0 12 0z" transform="translate(-12)"/>
            </g>
        </g>
    </g>
</svg>
