<?xml version="1.0" encoding="utf-8"?>
<!-- Generator: Adobe Illustrator 25.4.1, SVG Export Plug-In . SVG Version: 6.00 Build 0)  -->
<svg version="1.1" id="레이어_1" xmlns="http://www.w3.org/2000/svg" xmlns:xlink="http://www.w3.org/1999/xlink" x="0px"
	 y="0px" viewBox="0 0 63.8 63.5" style="enable-background:new 0 0 63.8 63.5;" xml:space="preserve">
<style type="text/css">
	.st0{fill:#FFFFFF;}
	.st1{fill:#E0E0E0;}
	.st2{fill:#47D6BE;}
	.st3{fill:#FFFFFF;stroke:#47D6BE;stroke-width:1.5;stroke-linecap:round;stroke-linejoin:round;}
</style>
<g id="그룹_202" transform="translate(-21.265 -206)">
	<g id="패스_170" transform="translate(22 206)">
		<path class="st0" d="M31.6,62.5c-4.2,0-8.2-0.8-12.1-2.4c-3.7-1.6-7-3.8-9.9-6.6c-2.8-2.8-5.1-6.2-6.6-9.9
			c-1.6-3.8-2.4-7.9-2.4-12.1S1.4,23.3,3,19.5c1.6-3.7,3.8-7,6.6-9.9s6.2-5.1,9.9-6.6c3.8-1.6,7.9-2.4,12.1-2.4S39.8,1.4,43.7,3
			c3.7,1.6,7,3.8,9.9,6.6c2.8,2.8,5.1,6.2,6.6,9.9c1.6,3.8,2.4,7.9,2.4,12.1s-0.8,8.2-2.4,12.1c-1.6,3.7-3.8,7-6.6,9.9
			c-2.8,2.8-6.2,5.1-9.9,6.6C39.8,61.7,35.8,62.5,31.6,62.5z"/>
		<path class="st1" d="M31.6,1c-4.1,0-8.1,0.8-11.9,2.4C16.1,5,12.8,7.2,10,10c-2.8,2.8-5,6.1-6.5,9.7c-1.6,3.8-2.4,7.8-2.4,11.9
			s0.8,8.1,2.4,11.9C5,47,7.2,50.3,10,53.1c2.8,2.8,6.1,5,9.7,6.5c3.8,1.6,7.8,2.4,11.9,2.4s8.1-0.8,11.9-2.4
			c3.6-1.5,6.9-3.7,9.7-6.5c2.8-2.8,5-6.1,6.5-9.7c1.6-3.8,2.4-7.8,2.4-11.9s-0.8-8.1-2.4-11.9C58.2,16,56,12.8,53.2,10
			c-2.8-2.8-6.1-5-9.7-6.5C39.7,1.8,35.7,1,31.6,1 M31.6,0C49,0,63.1,14.1,63.1,31.5S49,63,31.6,63S0.1,48.9,0.1,31.5S14.2,0,31.6,0
			z"/>
	</g>
	<path id="패스_169" class="st0" d="M82.5,225.1c3,4.7,2.5,6.2,2.5,12.5c0.1,17.5-14,31.7-31.5,31.8c-17.4,0-32.2-14.3-32.2-31.8
		c0-6.1,2-9.5,3.2-12.5C24.4,225.1,82.5,224.9,82.5,225.1z"/>
	<circle id="타원_91" class="st2" cx="54" cy="237.9" r="26"/>
	<g id="그룹_6" transform="translate(43.687 229.726)">
		<g id="그룹_5">
			<path id="패스_59" class="st0" d="M19.1,5.7V2.5c0-1.4-1.2-2.6-2.6-2.6c0,0,0,0,0,0H2.6C1.2-0.1,0,1.1,0,2.5v12.4
				c0,1.4,1.2,2.6,2.6,2.6h13.9c1.4,0,2.6-1.2,2.6-2.6v-4.7"/>
			<path id="패스_60" class="st3" d="M24.3,8.1l-6.7,2.3l-6.7,2.3l-3.5-0.8L9.7,9l6.7-2.3L23,4.5l0.6,1.8L24.3,8.1z"/>
		</g>
	</g>
</g>
</svg>
