<svg xmlns="http://www.w3.org/2000/svg" width="15" height="15" viewBox="0 0 15 15">
  <g id="safe_icon02" transform="translate(-1560.612 -3119.712)">
    <rect id="area-101" width="15" height="15" rx="2" transform="translate(1560.612 3119.712)" fill="#2f750e"/>
    <g id="그룹_6" data-name="그룹 6" transform="translate(1564.852 3122.212)">
      <path id="패스_25" data-name="패스 25" d="M1573.69,3126.757a1.039,1.039,0,1,0-1.268-.743A1.038,1.038,0,0,0,1573.69,3126.757Z" transform="translate(-1570.741 -3124.712)" fill="#fff"/>
      <path id="패스_26" data-name="패스 26" d="M1576.185,3134.188l-1.755-.48-.259-1.95h0l0-.009-.01-.073h0c0-.016,0-.032-.009-.049l-.66-2.533.992-.252.651.841h0l.069.091a.422.422,0,0,0,.672-.511l-.07-.092-.86-1.173c-.043-.055-.08-.072-.115-.063v-.009l-2.19.46v0a9.166,9.166,0,0,0-.831.4l-1.2,1.222-.757-.544-.094-.066a.422.422,0,1,0-.492.685l.1.07,1.015.744a.391.391,0,0,0,.536-.061l0,.005.9-.92.313,1.2.125.566-2.282,3.722a.6.6,0,0,0,1.018.625l2.089-3.406.054-.066.208,1.656a.577.577,0,0,0,.363.464l-.005.013,2.181.6a.572.572,0,1,0,.3-1.1Z" transform="translate(-1569.093 -3126.318)" fill="#fff"/>
    </g>
  </g>
</svg>
