<svg xmlns="http://www.w3.org/2000/svg" width="34" height="34" viewBox="0 0 34 34">
  <g id="safe_m_icon01" transform="translate(-52 -210)">
    <circle id="타원_1_복사" data-name="타원 1 복사" cx="17" cy="17" r="17" transform="translate(52 210)" fill="#dbdbdb"/>
    <g id="그룹_1" data-name="그룹 1" transform="translate(16.261 17.43)">
      <path id="패스_1" data-name="패스 1" d="M468.713,314.1V310.57a4.423,4.423,0,0,0-4.418-4.418h-.2a4.423,4.423,0,0,0-4.418,4.418V314.1H458.6l-.4.4v2.272l.4.4h11.179l.4-.4V314.5l-.4-.4Zm-8.234-3.531a3.619,3.619,0,0,1,3.615-3.615h.2a3.619,3.619,0,0,1,3.615,3.615V314.1h-7.431Zm8.9,5.8H459.006V314.9h.669v.017h.8V314.9h7.431v.017h.8V314.9h.67Z" transform="translate(-410.96 -100.561)" fill="#333"/>
      <path id="패스_2" data-name="패스 2" d="M470.045,310.724a3.3,3.3,0,0,0-2.84,3.613.469.469,0,1,0,.937,0c0-2.417,1.778-2.66,1.983-2.679a.469.469,0,0,0-.081-.934Z" transform="translate(-417.061 -103.659)" fill="#333"/>
      <path id="패스_3" data-name="패스 3" d="M475.952,294.72a.4.4,0,0,0,.4-.4v-3.347a.4.4,0,1,0-.8,0v3.347A.4.4,0,0,0,475.952,294.72Z" transform="translate(-422.717 -90)" fill="#333"/>
      <path id="패스_4" data-name="패스 4" d="M483.962,296.322a.4.4,0,0,0,.534-.195l1.413-3.034a.4.4,0,1,0-.728-.339l-1.413,3.034A.4.4,0,0,0,483.962,296.322Z" transform="translate(-428.262 -91.323)" fill="#333"/>
      <path id="패스_5" data-name="패스 5" d="M492.886,300.508a.4.4,0,0,0-.566-.049l-2.562,2.155a.4.4,0,0,0,.517.615l2.561-2.155A.4.4,0,0,0,492.886,300.508Z" transform="translate(-432.251 -96.638)" fill="#333"/>
      <path id="패스_6" data-name="패스 6" d="M464.436,296.128a.4.4,0,0,0,.728-.339l-1.413-3.034a.4.4,0,0,0-.728.339Z" transform="translate(-414.201 -91.323)" fill="#333"/>
      <path id="패스_7" data-name="패스 7" d="M456.5,303.322a.4.4,0,0,0,.259-.709l-2.561-2.155a.4.4,0,0,0-.517.615l2.562,2.155A.4.4,0,0,0,456.5,303.322Z" transform="translate(-407.797 -96.638)" fill="#333"/>
    </g>
  </g>
</svg>
