<svg xmlns="http://www.w3.org/2000/svg" width="15" height="15" viewBox="0 0 15 15">
  <g id="safe_icon04" transform="translate(-2315.115 -2372.899)">
    <rect id="area-25" width="15" height="15" rx="2" transform="translate(2315.115 2372.899)" fill="#d14943"/>
    <g id="그룹_316" data-name="그룹 316" transform="translate(2318.725 2375.358)">
      <rect id="사각형_296" data-name="사각형 296" width="4.222" height="0.933" transform="translate(1.793 2.344)" fill="#fff"/>
      <rect id="사각형_297" data-name="사각형 297" width="0.941" height="0.538" transform="translate(3.433 0.235)" fill="#fff"/>
      <rect id="사각형_298" data-name="사각형 298" width="0.454" height="0.37" transform="translate(3.677)" fill="#fff"/>
      <g id="그룹_314" data-name="그룹 314" transform="translate(2.089 0.53)">
        <path id="패스_357" data-name="패스 357" d="M2330.143,2380.69a1.815,1.815,0,1,0-2.38,1.725,1.152,1.152,0,0,1,1.13,0A1.815,1.815,0,0,0,2330.143,2380.69Z" transform="translate(-2326.513 -2378.876)" fill="#fff"/>
        <g id="그룹_313" data-name="그룹 313" transform="translate(0 2.369)">
          <path id="패스_358" data-name="패스 358" d="M2330.143,2383.614h-3.63v6.679h3.63Zm-1.814,3.33a1.154,1.154,0,1,1,1.153-1.154A1.154,1.154,0,0,1,2328.328,2386.944Z" transform="translate(-2326.513 -2383.614)" fill="#fff"/>
        </g>
      </g>
      <g id="그룹_315" data-name="그룹 315" transform="translate(3.035 4.205)">
        <path id="패스_359" data-name="패스 359" d="M2329.273,2386.227a.87.87,0,1,0,.869.87A.869.869,0,0,0,2329.273,2386.227Zm.181,1.177h-.362l-.181-.313.181-.314h.362l.181.314Z" transform="translate(-2328.404 -2386.227)" fill="#fff"/>
      </g>
      <rect id="사각형_299" data-name="사각형 299" width="0.518" height="2.308" transform="translate(5.881 3.921)" fill="#fff"/>
      <rect id="사각형_300" data-name="사각형 300" width="0.518" height="1.832" transform="translate(6.571 4.159)" fill="#fff"/>
      <rect id="사각형_301" data-name="사각형 301" width="0.518" height="0.639" transform="translate(7.262 4.755)" fill="#fff"/>
      <rect id="사각형_302" data-name="사각형 302" width="0.518" height="2.308" transform="translate(1.381 3.921)" fill="#fff"/>
      <rect id="사각형_303" data-name="사각형 303" width="0.518" height="1.832" transform="translate(0.691 4.159)" fill="#fff"/>
      <rect id="사각형_304" data-name="사각형 304" width="0.518" height="0.639" transform="translate(0 4.755)" fill="#fff"/>
      <rect id="사각형_305" data-name="사각형 305" width="4.653" height="0.781" transform="translate(1.64 9.3)" fill="#fff"/>
    </g>
  </g>
</svg>
