<svg xmlns="http://www.w3.org/2000/svg" width="78" height="78" viewBox="0 0 78 78">
  <g id="그룹_183" data-name="그룹 183" transform="translate(-142 -311)">
    <circle id="타원_83" data-name="타원 83" cx="39" cy="39" r="39" transform="translate(142 311)" fill="#ffeb37"/>
    <g id="qr" transform="translate(160 329.436)">
      <g id="그룹_76" data-name="그룹 76" transform="translate(28.064)">
        <path id="패스_120" data-name="패스 120" d="M529.205,363.725h-4.1V355.13H516.51v-4.1h12.7Z" transform="translate(-516.51 -351.03)" fill="#333"/>
      </g>
      <g id="그룹_77" data-name="그룹 77" transform="translate(28.064 28.064)">
        <path id="패스_121" data-name="패스 121" d="M529.205,380.835h-12.7v-4.1H525.1V368.14h4.1Z" transform="translate(-516.51 -368.14)" fill="#333"/>
      </g>
      <g id="그룹_78" data-name="그룹 78" transform="translate(0 28.064)">
        <path id="패스_122" data-name="패스 122" d="M512.1,380.835H499.4v-12.7h4.1v8.595H512.1Z" transform="translate(-499.4 -368.14)" fill="#333"/>
      </g>
      <g id="그룹_79" data-name="그룹 79" transform="translate(0)">
        <path id="패스_123" data-name="패스 123" d="M503.5,363.725h-4.1v-12.7h12.7v4.1H503.5Z" transform="translate(-499.4 -351.03)" fill="#333"/>
      </g>
      <g id="그룹_84" data-name="그룹 84" transform="translate(6.659 6.643)">
        <g id="그룹_80" data-name="그룹 80">
          <path id="패스_124" data-name="패스 124" d="M515.532,367.168H503.46V355.08h12.072Zm-7.971-4.1h3.871V359.18H507.56Z" transform="translate(-503.46 -355.08)" fill="#333"/>
        </g>
        <g id="그룹_81" data-name="그룹 81" transform="translate(15.352)">
          <path id="패스_125" data-name="패스 125" d="M524.908,367.168H512.82V355.08h12.088Zm-7.971-4.1h3.887V359.18h-3.887Z" transform="translate(-512.82 -355.08)" fill="#333"/>
        </g>
        <g id="그룹_82" data-name="그룹 82" transform="translate(0 15.369)">
          <path id="패스_126" data-name="패스 126" d="M515.532,376.538H503.46V364.45h12.072Zm-7.971-4.1h3.871V368.55H507.56Z" transform="translate(-503.46 -364.45)" fill="#333"/>
        </g>
        <g id="그룹_83" data-name="그룹 83" transform="translate(19.305 19.371)">
          <rect id="사각형_595" data-name="사각형 595" width="4.199" height="4.1" fill="#333"/>
        </g>
      </g>
    </g>
  </g>
</svg>
