<svg xmlns="http://www.w3.org/2000/svg" width="36" height="36" viewBox="0 0 36 36">
    <defs>
        <style>
            .cls-3{fill:#fff}
        </style>
    </defs>
    <g id="ic_appbar_registration" transform="translate(-676.762 -387.212)">
        <path id="사각형_119667" fill="rgba(255,203,203,0)" d="M0 0H36V36H0z" transform="translate(676.762 387.212)"/>
        <path id="사각형_119669" fill="rgba(255,106,106,0)" d="M0 0H30V30H0z" transform="translate(679.762 390.212)"/>
        <path id="합치기_1879" d="M701.262 415.712v-4.5h-4.5v-1h4.5v-4.5h1v4.5h4.5v1h-4.5v4.5z" class="cls-3"/>
        <g id="타원_43138">
            <circle id="타원_43212" cx="4.5" cy="4.5" r="4.5" fill="none" transform="translate(689.262 395.712)"/>
            <path id="패스_20941" d="M693.762 404.712a4.5 4.5 0 1 1 4.5-4.5 4.5 4.5 0 0 1-4.5 4.5zm0-8a3.5 3.5 0 1 0 3.5 3.5 3.5 3.5 0 0 0-3.5-3.5z" class="cls-3"/>
        </g>
        <path id="패스_20942" d="M698.5 415.212h-13.842v-9H698.5v1h-12.842v7H698.5z" class="cls-3"/>
    </g>
</svg>
