<svg xmlns="http://www.w3.org/2000/svg" width="18" height="18" viewBox="0 0 18 18">
    <defs>
        <style>
            .cls-3{fill:none;stroke:#0d6645}
        </style>
    </defs>
    <g id="ic_coupon_Validity" transform="translate(-34 -253)">
        <g id="ic_meeingroom_date" transform="translate(-250.638 -41.945)">
            <path id="area" fill="rgba(226,131,137,0)" d="M0 0H18V18H0z" transform="translate(284.638 294.945)"/>
            <path id="빼기_251" fill="#0d6645" d="M9510.055-9430.054h-5.418v-12h3v-.7h1v.7h4v-.7h1v.7h3v5.415a5.038 5.038 0 0 0-1-.314v-1.1h-10v7h4.1a5.008 5.008 0 0 0 .316 1zm-4.417-11v2h10v-2h-2v.7h-1v-.7h-4v.7h-1v-.7z" transform="translate(-9217 9740)"/>
        </g>
        <g id="타원_43204" class="cls-3" transform="translate(43 262)">
            <circle cx="4" cy="4" r="4"/>
            <circle cx="4" cy="4" r="3.5" fill="none"/>
        </g>
        <path id="패스_20899" d="M301.638 309.152v2h1.5" class="cls-3" transform="translate(-254.638 -45.152)"/>
    </g>
</svg>
