<svg xmlns="http://www.w3.org/2000/svg" width="34" height="34" viewBox="0 0 34 34">
    <defs>
        <style>
            .cls-2{fill:#e6e6e6}
        </style>
    </defs>
    <g id="ic_checkbox_enabled_unsel_03" transform="translate(-665.61 -364.158)">
        <path id="area" fill="none" d="M0 0H34V34H0z" transform="translate(665.61 364.158)"/>
        <g id="ic">
            <path id="패스_20773" d="M688.61 389.658h-12a2.5 2.5 0 0 1-2.5-2.5v-12a2.5 2.5 0 0 1 2.5-2.5h12a2.5 2.5 0 0 1 2.5 2.5v12a2.5 2.5 0 0 1-2.5 2.5zm-12-16a1.5 1.5 0 0 0-1.5 1.5v12a1.5 1.5 0 0 0 1.5 1.5h12a1.5 1.5 0 0 0 1.5-1.5v-12a1.5 1.5 0 0 0-1.5-1.5z" class="cls-2"/>
            <g id="그룹_106165">
                <path id="패스_20959" d="M681.388 384.382l-2.645-2.758.722-.692 1.917 2 4.359-4.618.727.687z" class="cls-2"/>
            </g>
        </g>
    </g>
</svg>
