<svg xmlns="http://www.w3.org/2000/svg" width="34" height="34" viewBox="0 0 34 34">
    <g>
        <path fill="rgba(243,156,159,0)" d="M0 0H34V34H0z" transform="translate(-306.36 -172.291) translate(306.36 172.291)"/>
        <g>
            <path fill="gray" d="M676.7 377l5.55 6.34.25.28v6.76l2-1v-5.76l.25-.28 4.24-4.84h1.32l-4.81 5.5v6l-4 2v-8l-7-8h18l-.87 1z" transform="translate(-306.36 -172.291) translate(-360.14 -194.709)"/>
            <path fill="#333" d="M691.63 377l.87-1h-18l7 8v8l4-2v-6l4.81-5.5h-1.32l-4.24 4.84-.25.28v5.76l-2 1v-6.76l-.25-.28-5.55-6.34z" transform="translate(-306.36 -172.291) translate(-360.14 -194.709)"/>
        </g>
    </g>
</svg>
