<svg xmlns="http://www.w3.org/2000/svg" width="36" height="36" viewBox="0 0 36 36">
    <defs>
        <style>
            .cls-2{fill:#333}
        </style>
    </defs>
    <g id="ic_list_place_nor" transform="translate(7.754 58.75)">
        <path id="area" fill="none" d="M0 0H36V36H0z" transform="translate(-7.754 -58.75)"/>
        <g id="ic">
            <path id="패스_20710" d="M10.246-50.125a7.508 7.508 0 0 0-7.5 7.5c0 4.076 6.834 11.875 7.125 12.206l.355.4.374-.381c.071-.073 7.143-7.873 7.143-12.226a7.508 7.508 0 0 0-7.497-7.499zm.012 18.625c-1.419-1.678-6.512-7.92-6.512-11.121a6.508 6.508 0 0 1 6.5-6.5 6.508 6.508 0 0 1 6.5 6.5c0 3.239-4.938 9.36-6.488 11.121z" class="cls-2"/>
            <circle id="타원_42992" cx="3" cy="3" r="3" class="cls-2" transform="translate(7.246 -45.75)"/>
        </g>
    </g>
</svg>
