<svg xmlns="http://www.w3.org/2000/svg" width="28" height="28" viewBox="0 0 28 28">
  <g id="ic_meetingroom_visitor" transform="translate(-201.17 -301.379)">
    <rect id="사각형_1348-3" data-name="사각형 1348-3" width="28" height="28" transform="translate(201.17 301.379)" fill="rgba(243,204,224,0)"/>
    <g id="그룹_105713" data-name="그룹 105713">
      <path id="패스_20807" data-name="패스 20807" d="M212.67,313.579a4.1,4.1,0,1,1,4.1-4.1A4.1,4.1,0,0,1,212.67,313.579Zm0-7.2a3.1,3.1,0,1,0,3.1,3.1,3.1,3.1,0,0,0-3.1-3.1Z" fill="#1c1d1d"/>
      <g id="그룹_105714" data-name="그룹 105714">
        <rect id="사각형_114974" data-name="사각형 114974" width="1" height="1.22" transform="translate(220.171 315.659)" fill="#1c1d1d"/>
        <path id="패스_20821" data-name="패스 20821" d="M215.67,322.935h-10.5v-7.278h16v-1h-17v9.278h11.5Z" fill="#1c1d1d"/>
      </g>
      <path id="패스_20822" data-name="패스 20822" d="M223.374,326.329l-.707-.707,3.546-3.545-3.545-3.525.705-.709,4.256,4.232Z" fill="#262727"/>
      <rect id="사각형_114975" data-name="사각형 114975" width="9.29" height="1" transform="translate(217.625 321.583)" fill="#262727"/>
    </g>
  </g>
</svg>
