<svg xmlns="http://www.w3.org/2000/svg" width="38" height="38" viewBox="0 0 38 38">
    <defs>
        <style>
            .cls-2{fill:#e6e6e6}
        </style>
    </defs>
    <g id="ic_meeting_place_dis" transform="translate(-196.17 -296.379)">
        <path id="사각형_10563" fill="rgba(255,255,255,0)" d="M0 0H38V38H0z" transform="translate(196.17 296.379)"/>
        <g id="그룹_105399">
            <path id="패스_20823" d="M215.247 326.99l-.36-.418c-.3-.352-7.389-8.654-7.395-12.987a7.782 7.782 0 1 1 15.55.005c0 4.613-7.34 12.924-7.414 13zm.008-20.511a6.946 6.946 0 0 0-6.763 7.089v.011c0 3.438 5.327 10.133 6.788 11.9 1.616-1.865 6.762-8.365 6.762-11.9a6.954 6.954 0 0 0-6.787-7.1z" class="cls-2"/>
            <ellipse id="타원_42971" cx="3.118" cy="3.2" class="cls-2" rx="3.118" ry="3.2" transform="translate(212.149 310.246)"/>
        </g>
    </g>
</svg>
