<svg xmlns="http://www.w3.org/2000/svg" width="20" height="20" viewBox="0 0 20 20">
  <g id="slice" transform="translate(2 2)">
    <path id="Path" d="M10,0A10,10,0,1,1,0,10,10,10,0,0,1,10,0Z" transform="translate(-2 -2)" fill="#fff"/>
    <path id="빼기_242" data-name="빼기 242" d="M1128,1461a8,8,0,1,1,8-8A8.009,8.009,0,0,1,1128,1461Zm0-7.294h0l2.828,2.829.706-.707-2.829-2.829,2.829-2.828-.707-.707-2.828,2.828-2.829-2.828-.706.707,2.828,2.828-2.829,2.829.707.707,2.829-2.829Z" transform="translate(-1120 -1445)" fill="#333"/>
  </g>
</svg>
