<svg xmlns="http://www.w3.org/2000/svg" width="38" height="38" viewBox="0 0 38 38">
    <defs>
        <style>
            .cls-2{fill:#333}
        </style>
    </defs>
    <g id="ic_schedule_visit" transform="translate(-473.967 -403.06)">
        <path id="area" fill="rgba(243,156,159,0)" d="M0 0H38V38H0z" transform="translate(473.967 403.06)"/>
        <g id="ic">
            <path id="패스_20665" d="M488.467 423.061a3.5 3.5 0 1 0 3.5-3.5 3.5 3.5 0 0 0-3.5 3.5zm6 0a2.5 2.5 0 1 1-2.5-2.5 2.5 2.5 0 0 1 2.5 2.5z" class="cls-2"/>
            <path id="패스_20666" d="M504.467 435.561h-5v-7h-15v7h-5v-21h13.525a7.984 7.984 0 0 1 .12-1h-14.645v23h27v-14.887a7.956 7.956 0 0 1-1 .572zm-6 0h-13v-6h13z" class="cls-2"/>
            <path id="패스_20667" d="M500.967 408.561a6.5 6.5 0 1 0 6.5 6.5 6.507 6.507 0 0 0-6.5-6.5zm0 12a5.5 5.5 0 1 1 5.5-5.5 5.506 5.506 0 0 1-5.5 5.5z" class="cls-2"/>
            <path id="패스_20668" d="M501.254 412.277h-.8v3.146l2.1 1.594.484-.637-1.782-1.354z" class="cls-2"/>
        </g>
    </g>
</svg>
