<svg xmlns="http://www.w3.org/2000/svg" width="28" height="28" viewBox="0 0 28 28">
    <g>
        <path fill="rgba(240,192,217,0)" d="M0 0H28V28H0z" transform="translate(-.001 .001) translate(.001 -.001)"/>
        <g fill="#333">
            <path d="M8455 15050.5v-10.255a3.249 3.249 0 1 1 6.5 0v8.755a2 2 0 0 1-4 0v-7h1v7a1 1 0 0 0 2 0v-8.752a2.25 2.25 0 0 0-4.5 0v10.255a3.5 3.5 0 0 0 7 0v-8.5h1v8.5a4.5 4.5 0 1 1-9 0z" transform="translate(-.001 .001) translate(2.001 2) rotate(40 24888.787 -4074.971)"/>
        </g>
    </g>
</svg>
