<svg xmlns="http://www.w3.org/2000/svg" width="28" height="28" viewBox="0 0 28 28">
    <defs>
        <style>
            .cls-3{fill:#333}
        </style>
    </defs>
    <g id="ic_title_visitor" transform="translate(-.001 .022)">
        <path id="area" d="M0 0H28V28H0z" opacity="0.001" transform="translate(.001 -.022)" style="isolation:isolate"/>
        <g id="ic" transform="translate(2 2)">
            <path id="ic_area" fill="rgba(255,26,145,0)" d="M0 0H24V24H0z" transform="translate(.001 -.022)"/>
            <path id="사각형_114975" d="M0 0H9V1H0z" class="cls-3" transform="translate(13.5 15.5)"/>
            <g id="타원_43138" transform="translate(6.5 3)">
                <circle id="타원_43203" cx="4" cy="4" r="4" fill="none"/>
                <path id="패스_20905" d="M681.734 383.816a4 4 0 1 1 4-4 4 4 0 0 1-4 4zm0-7a3 3 0 1 0 3 3 3 3 0 0 0-3-3z" class="cls-3" transform="translate(-677.734 -375.816)"/>
            </g>
            <path id="패스_20906" d="M688.734 392.815h-14.5v-8h14.5v1h-13.5v6h13.5z" class="cls-3" transform="translate(-671.234 -372.816)"/>
            <path id="패스_20907" d="M691.088 392.169l-.707-.707 2.646-2.646-2.646-2.646.707-.707 3.354 3.354z" class="cls-3" transform="translate(-671.234 -372.816)"/>
        </g>
    </g>
</svg>
