<svg xmlns="http://www.w3.org/2000/svg" width="177.001" height="140" viewBox="0 0 177.001 140">
    <defs>
        <clipPath id="clip-path">
            <path id="제외_2" d="M8378 13017h-177v-140h177v.127a4 4 0 0 0 0 7.746v4.253a4 4 0 0 0 0 7.749v4.25a4 4 0 0 0 0 7.749v4.25a4 4 0 0 0 0 7.749v4.254a4 4 0 0 0 0 7.745v4.254a4 4 0 0 0 0 7.749v4.25a4 4 0 0 0 0 7.749v4.253a4 4 0 0 0 0 7.746v4.253a4 4 0 0 0 0 7.749v4.25a4 4 0 0 0 0 7.749v4.251a4 4 0 0 0 0 7.748v4.254a4 4 0 0 0 0 7.746v.126z" class="cls-1" transform="translate(-8179 -12735)"/>
        </clipPath>
        <clipPath id="clip-path-2">
            <circle id="mask" cx="55" cy="55" r="55" class="cls-2"/>
        </clipPath>
        <style>
            .cls-1{fill:#efebe6}.cls-2{fill:none;stroke:#ebe1d1;stroke-miterlimit:10;stroke-width:1.5px}
        </style>
    </defs>
    <g id="img_coupon" transform="translate(-21.999 -142)">
        <path id="제외_1" d="M8378 13017h-177v-140h177v.127a4 4 0 0 0 0 7.746v4.253a4 4 0 0 0 0 7.749v4.25a4 4 0 0 0 0 7.749v4.25a4 4 0 0 0 0 7.749v4.254a4 4 0 0 0 0 7.745v4.254a4 4 0 0 0 0 7.749v4.25a4 4 0 0 0 0 7.749v4.253a4 4 0 0 0 0 7.746v4.253a4 4 0 0 0 0 7.749v4.25a4 4 0 0 0 0 7.749v4.251a4 4 0 0 0 0 7.748v4.254a4 4 0 0 0 0 7.746v.126z" class="cls-1" transform="translate(-8179 -12735)"/>
        <g id="마스크_그룹_59" clip-path="url(#clip-path)">
            <g id="graphic_line" clip-path="url(#clip-path-2)" transform="translate(120 194)">
                <path id="shape" d="M0 0L121.359 0" class="cls-2" transform="rotate(-45 65.153 63.326)"/>
                <path id="shape-2" d="M0 0L121.359 0" class="cls-2" transform="rotate(-45 60.928 65.076)"/>
                <path id="shape-3" d="M0 0L121.359 0" class="cls-2" transform="rotate(-45 73.601 59.827)"/>
                <path id="shape-4" d="M0 0L121.359 0" class="cls-2" transform="rotate(-45 69.377 61.576)"/>
                <path id="shape-5" d="M0 0L121.359 0" class="cls-2" transform="rotate(-45 82.05 56.327)"/>
                <path id="shape-6" d="M0 0L121.359 0" class="cls-2" transform="rotate(-45 77.826 58.077)"/>
                <path id="shape-7" d="M0 0L121.359 0" class="cls-2" transform="rotate(-45 90.499 52.827)"/>
                <path id="shape-8" d="M0 0L121.359 0" class="cls-2" transform="rotate(-45 86.275 54.578)"/>
                <path id="shape-9" d="M0 0L121.359 0" class="cls-2" transform="rotate(-45 98.947 49.328)"/>
                <path id="shape-10" d="M0 0L121.359 0" class="cls-2" transform="rotate(-45 94.724 51.077)"/>
                <path id="shape-11" d="M0 0L121.359 0" class="cls-2" transform="rotate(-45 107.397 45.829)"/>
                <path id="shape-12" d="M0 0L121.359 0" class="cls-2" transform="rotate(-45 103.172 47.579)"/>
                <path id="shape-13" d="M0 0L121.359 0" class="cls-2" transform="rotate(-45 115.844 42.329)"/>
                <path id="shape-14" d="M0 0L121.359 0" class="cls-2" transform="rotate(-45 111.62 44.078)"/>
                <path id="shape-15" d="M0 0L121.359 0" class="cls-2" transform="rotate(-45 124.294 38.83)"/>
                <path id="shape-16" d="M0 0L121.359 0" class="cls-2" transform="rotate(-45 120.07 40.579)"/>
                <path id="shape-17" d="M0 0L121.359 0" class="cls-2" transform="rotate(-45 132.743 35.33)"/>
                <path id="shape-18" d="M0 0L121.359 0" class="cls-2" transform="rotate(-45 128.518 37.08)"/>
                <path id="shape-19" d="M0 0L121.359 0" class="cls-2" transform="rotate(-45 141.191 31.83)"/>
                <path id="shape-20" d="M0 0L121.359 0" class="cls-2" transform="rotate(-45 136.967 33.58)"/>
                <path id="shape-21" d="M0 0L121.359 0" class="cls-2" transform="rotate(-45 149.64 28.33)"/>
                <path id="shape-22" d="M0 0L121.359 0" class="cls-2" transform="rotate(-45 145.415 30.08)"/>
                <path id="shape-23" d="M0 0L121.359 0" class="cls-2" transform="rotate(-45 158.088 24.83)"/>
                <path id="shape-24" d="M0 0L121.359 0" class="cls-2" transform="rotate(-45 153.864 26.581)"/>
                <path id="shape-25" d="M0 0L121.359 0" class="cls-2" transform="rotate(-45 166.537 21.331)"/>
                <path id="shape-26" d="M0 0L121.359 0" class="cls-2" transform="rotate(-45 162.313 23.08)"/>
                <path id="shape-27" d="M0 0L121.359 0" class="cls-2" transform="rotate(-45 174.986 17.832)"/>
                <path id="shape-28" d="M0 0L121.359 0" class="cls-2" transform="rotate(-45 170.761 19.582)"/>
                <path id="shape-29" d="M0 0L121.359 0" class="cls-2" transform="rotate(-45 183.435 14.333)"/>
                <path id="shape-30" d="M0 0L121.359 0" class="cls-2" transform="rotate(-45 179.21 16.082)"/>
                <path id="shape-31" d="M0 0L121.359 0" class="cls-2" transform="rotate(-45 187.66 12.583)"/>
            </g>
        </g>
    </g>
</svg>
