<?xml version="1.0" encoding="utf-8"?>
<!-- Generator: Adobe Illustrator 25.4.1, SVG Export Plug-In . SVG Version: 6.00 Build 0)  -->
<svg version="1.1" id="레이어_1" xmlns="http://www.w3.org/2000/svg" xmlns:xlink="http://www.w3.org/1999/xlink" x="0px"
	 y="0px" viewBox="0 0 63.8 63.5" style="enable-background:new 0 0 63.8 63.5;" xml:space="preserve">
<style type="text/css">
	.st0{fill:#FFFFFF;}
	.st1{fill:#E0E0E0;}
	.st2{fill:#47D6BE;}
	.st3{fill-rule:evenodd;clip-rule:evenodd;fill:#FFFFFF;}
</style>
<g id="그룹_199" transform="translate(-21.265 -206)">
	<g id="패스_170" transform="translate(22 206)">
		<path class="st0" d="M31.5,62.5c-4.2,0-8.2-0.8-12.1-2.4c-3.7-1.6-7-3.8-9.9-6.6c-2.8-2.8-5.1-6.2-6.6-9.9
			c-1.6-3.8-2.4-7.9-2.4-12.1s0.8-8.2,2.4-12.1c1.6-3.7,3.8-7,6.6-9.9s6.2-5.1,9.9-6.6c3.8-1.6,7.9-2.4,12.1-2.4S39.7,1.4,43.6,3
			c3.7,1.6,7,3.8,9.9,6.6c2.8,2.8,5.1,6.2,6.6,9.9c1.6,3.8,2.4,7.9,2.4,12.1s-0.8,8.2-2.4,12.1c-1.6,3.7-3.8,7-6.6,9.9
			c-2.8,2.8-6.2,5.1-9.9,6.6C39.7,61.7,35.7,62.5,31.5,62.5z"/>
		<path class="st1" d="M31.5,1c-4.1,0-8.1,0.8-11.9,2.4C16,5,12.7,7.2,9.9,10c-2.8,2.8-5,6.1-6.5,9.7C1.8,23.4,1,27.4,1,31.5
			s0.8,8.1,2.4,11.9c1.5,3.6,3.7,6.9,6.5,9.7c2.8,2.8,6.1,5,9.7,6.5c3.8,1.6,7.8,2.4,11.9,2.4s8.1-0.8,11.9-2.4
			c3.6-1.5,6.9-3.7,9.7-6.5c2.8-2.8,5-6.1,6.5-9.7c1.6-3.8,2.4-7.8,2.4-11.9s-0.8-8.1-2.4-11.9c-1.5-3.6-3.7-6.9-6.5-9.7
			c-2.8-2.8-6.1-5-9.7-6.5C39.6,1.9,35.6,1,31.5,1 M31.5,0C48.9,0,63,14.1,63,31.5S48.9,63,31.5,63S0,48.9,0,31.5S14.1,0,31.5,0z"/>
	</g>
	<path id="패스_169" class="st0" d="M82.5,225.2c3,4.7,2.5,6.2,2.5,12.5c0.1,17.5-14,31.7-31.5,31.8c-17.4,0-32.2-14.3-32.2-31.8
		c0-6.1,2-9.5,3.2-12.5C24.4,225.2,82.5,225,82.5,225.2z"/>
	<circle id="타원_91" class="st2" cx="54" cy="238" r="26"/>
	<path id="Log-in" class="st3" d="M65,248c0-6.1-4.9-11-11-11s-11,4.9-11,11h1.7c0.1-5.1,4.4-9.2,9.5-9.1c5,0.1,9,4.1,9.1,9.1H65z
		 M54,235.6c3.2-0.1,5.7-2.7,5.7-5.9c-0.1-3.2-2.7-5.7-5.9-5.7c-3.1,0.1-5.7,2.6-5.7,5.8C48.1,233.1,50.8,235.7,54,235.6z M54,234
		c-2.3-0.1-4.1-1.9-4-4.2c0.1-2.3,1.9-4.1,4.2-4c2.2,0.1,4,1.9,4,4.1C58.2,232.1,56.3,234,54,234z"/>
</g>
</svg>
