<svg xmlns="http://www.w3.org/2000/svg" width="15" height="15" viewBox="0 0 15 15">
  <g id="safe_icon03" transform="translate(-1705.025 -3391.8)">
    <rect id="area-25" width="15" height="15" rx="2" transform="translate(1705.025 3391.8)" fill="#d14943"/>
    <path id="패스_15" data-name="패스 15" d="M1715.914,3398.758v-.323h-.011a.941.941,0,0,0-.146.037,1.568,1.568,0,0,0-.165.059,3.271,3.271,0,0,0-.3.146,1.39,1.39,0,0,0-.252.188,1.045,1.045,0,0,0-.156.177c-.054.075-.109.147-.166.214a1.419,1.419,0,0,1-.178.178.292.292,0,0,1-.188.075.337.337,0,0,1-.22-.075.266.266,0,0,1-.091-.216.566.566,0,0,1,.1-.3,2.016,2.016,0,0,1,.247-.311,2.99,2.99,0,0,1,.3-.269c.1-.078.182-.139.248-.182l.289-.172c.006,0,.01,0,.01-.01v-.011a.721.721,0,0,1-.2-.494.785.785,0,0,1,.221-.564.771.771,0,0,1,1.035-.058.7.7,0,0,1,.247.44h.344v.44h1.213v-.268l2.932-.429v2.018l-2.932-.429v-.258h-1.2v.4l.043.021a2.168,2.168,0,0,1,.6.386,1.672,1.672,0,0,1,.407.591c.015.036.038.1.07.189a.658.658,0,0,1,.049.188v6.432a.222.222,0,0,1-.086.156.241.241,0,0,1-.14.081h-2.9a.2.2,0,0,1-.183-.14.574.574,0,0,1-.065-.236v-6.045a1.515,1.515,0,0,1,.354-1A2.059,2.059,0,0,1,1715.914,3398.758Zm-.963-1.332a.346.346,0,0,0,.1.247.332.332,0,0,0,.252.108.311.311,0,0,0,.236-.1.342.342,0,0,0,.1-.242.334.334,0,0,0-.1-.247.32.32,0,0,0-.236-.1.361.361,0,0,0-.252.092A.307.307,0,0,0,1714.952,3397.427Z" transform="translate(-4.51 -2.438)" fill="#fff"/>
  </g>
</svg>
