<svg xmlns="http://www.w3.org/2000/svg" width="36" height="36" viewBox="0 0 36 36">
    <g>
        <path fill="rgba(255,255,255,0)" d="M0 0H36V36H0z" transform="translate(-378.667 -171.947) translate(378.667 171.947)"/>
        <path fill="#fff" d="M50.132-31.988h-4.738l-.424-2.893a8.566 8.566 0 0 1-1.1-.637l-2.7 1.081-2.6-4.477 2.294-1.79-.048-.628c0-.247.012-.466.029-.674l-2.293-1.8 2.6-4.5 2.694 1.106a7.436 7.436 0 0 1 1.124-.66l.413-2.884h5.19l.422 2.876a7.354 7.354 0 0 1 1.125.656l2.693-1.088 2.6 4.5-2.3 1.782q.031.324.034.65c0 .226-.017.448-.038.661l1.654 1.3c.174.127.311.246.311.246l.312.271-2.586 4.461-2.7-1.081a8.458 8.458 0 0 1-1.119.638l-.3 2.082c-.026.216-.055.386-.055.386l-.071.416zm-3.874-1H49.7l.369-2.574.257-.111a7.392 7.392 0 0 0 1.413-.806l.223-.163 2.412.963 1.724-2.98-2.037-1.6.038-.388a7.109 7.109 0 0 0 .048-.715 6.793 6.793 0 0 0-.058-.813l-.037-.284 2.057-1.6-1.728-2.991-2.41.978-.227-.175a6.378 6.378 0 0 0-1.4-.815l-.259-.109-.377-2.572H46.25l-.369 2.575-.257.11a6.441 6.441 0 0 0-1.4.825l-.229.176-2.411-.991-1.73 2.991 2.041 1.6-.027.273a8.02 8.02 0 0 0-.051.812l.086 1.1-.213.194-1.817 1.412 1.727 2.979 2.408-.963.223.164a7.467 7.467 0 0 0 1.4.806l.253.112zm1.718-4.77a3.581 3.581 0 0 1-2.547-1.055 3.587 3.587 0 0 1-1.058-2.549 3.611 3.611 0 0 1 3.6-3.61 3.582 3.582 0 0 1 2.549 1.055 3.579 3.579 0 0 1 1.058 2.549 3.618 3.618 0 0 1-3.6 3.61zm0-6.214a2.61 2.61 0 0 0-2.606 2.609 2.588 2.588 0 0 0 .765 1.842 2.583 2.583 0 0 0 1.84.763 2.615 2.615 0 0 0 2.609-2.607 2.585 2.585 0 0 0-.765-1.844 2.588 2.588 0 0 0-1.843-.763z" transform="translate(-378.667 -171.947) translate(349.114 231.69)"/>
    </g>
</svg>
