<svg xmlns="http://www.w3.org/2000/svg" width="28" height="28" viewBox="0 0 28 28">
    <defs>
        <style>
            .cls-2{fill:#fff}
        </style>
    </defs>
    <g id="ic_btn_search_meeting" transform="translate(-619.353 -341.273)">
        <path id="area" fill="rgba(253,41,205,0)" d="M0 0H28V28H0z" transform="translate(619.353 341.273)"/>
        <g id="ic">
            <path id="패스_20658" d="M641.8 358.75h-16.892v-11.777h9.46a5.979 5.979 0 0 1 .13-1h-12.645v1h2.055v12.777h8.945v3.744h-7.813v1.2h16.627v-1.2h-7.814v-3.744h8.947v-7a5.98 5.98 0 0 1-1 .341z" class="cls-2"/>
            <path id="사각형_114918" d="M0 0H6.558V1H0z" class="cls-2" transform="translate(628.199 353.438)"/>
            <path id="패스_20659" d="M635.228 350.38H628.2v1h7.79a5.982 5.982 0 0 1-.762-1z" class="cls-2"/>
            <path id="패스_20660" d="M643.721 350.225a4.459 4.459 0 0 0 1.132-2.953 4.534 4.534 0 1 0-1.866 3.632l2.73 3.118.752-.659zm-3.368.547a3.5 3.5 0 1 1 3.5-3.5 3.5 3.5 0 0 1-3.5 3.5z" class="cls-2"/>
        </g>
    </g>
</svg>
