<svg xmlns="http://www.w3.org/2000/svg" width="34" height="34" viewBox="0 0 34 34">
    <defs>
        <style>
            .cls-2{fill:#333}
        </style>
    </defs>
    <g id="ic_sidemenu_enterance" transform="translate(-341.36 -96.291)">
        <path id="area" fill="none" d="M0 0H34V34H0z" transform="translate(341.36 96.291)"/>
        <g id="ic">
            <path id="사각형_114935" d="M0 0H5V1H0z" class="cls-2" transform="translate(360.36 110.291)"/>
            <path id="사각형_114936" d="M0 0H5V1H0z" class="cls-2" transform="translate(360.36 115.291)"/>
            <path id="사각형_114937" d="M0 0H3.333V1H0z" class="cls-2" transform="translate(360.36 112.791)"/>
            <path id="패스_20694" d="M354.86 113.073a2.141 2.141 0 1 1 2.14-2.141 2.143 2.143 0 0 1-2.14 2.141zm0-3.282a1.141 1.141 0 1 0 1.14 1.141 1.142 1.142 0 0 0-1.14-1.141z" class="cls-2"/>
            <path id="패스_20695" d="M358.36 117.791h-7.146v-4.305h7.146zm-6.146-1h5.146v-2.305h-5.146z" class="cls-2"/>
            <path id="패스_20696" d="M367.36 109.3v9.991h-18v-12h18v.009h1v-1.009h-20v14h20V109.3z" class="cls-2"/>
        </g>
    </g>
</svg>
