<svg xmlns="http://www.w3.org/2000/svg" width="74" height="74" viewBox="0 0 74 74">
    <defs>
        <style>
            .cls-2{fill:#333}
        </style>
    </defs>
    <g id="img_wifi" transform="translate(-300.433 -224.277)">
        <path id="area" fill="rgba(230,230,230,0)" d="M0 0H74V74H0z" transform="translate(300.433 224.277)"/>
        <g id="ic">
            <path id="패스_20678" d="M337.6 277.571a3.758 3.758 0 1 0 3.758 3.758 3.757 3.757 0 0 0-3.758-3.758z" class="cls-2"/>
            <path id="패스_20679" d="M337.513 262.89h-.1c-7.465 0-12.891 5.766-13.119 6.013l2.932 2.722c.044-.048 4.5-4.735 10.188-4.735h.072c5.731.04 10.074 4.676 10.113 4.718l2.955-2.7c-.223-.239-5.532-5.966-13.041-6.018z" class="cls-2"/>
            <path id="패스_20680" d="M337.58 249.891c-13.116-.11-22.655 10.08-23.056 10.513l2.933 2.72c.087-.094 8.817-9.3 20.1-9.233 11.3.078 19.734 9.13 19.816 9.219l2.955-2.695c-.393-.426-9.671-10.434-22.748-10.524z" class="cls-2"/>
            <path id="패스_20681" d="M337.646 236.273h-.246c-18.407 0-31.868 14.306-32.435 14.918l2.934 2.719c.127-.137 12.871-13.637 29.507-13.637h.213c16.745.116 29.184 13.49 29.306 13.623l2.956-2.695c-.551-.601-13.708-14.801-32.235-14.928z" class="cls-2"/>
        </g>
    </g>
</svg>
