<svg xmlns="http://www.w3.org/2000/svg" width="30" height="30" viewBox="0 0 30 30">
    <defs>
        <clipPath id="clip-path"/>
        <style>
            .cls-6{stroke:none}
        </style>
    </defs>
    <g id="img_login_loading" opacity="0.9" transform="translate(-160 -360)">
        <g id="타원_42985" fill="none" stroke="#fff" stroke-width="4px" transform="translate(160 360)">
            <circle cx="15" cy="15" r="15" class="cls-6"/>
            <circle cx="15" cy="15" r="13"/>
        </g>
        <g id="마스크_그룹_53" clip-path="url(#clip-path)" transform="translate(175 360)">
            <g id="패스_20643" fill="none">
                <path d="M15 0A15 15 0 1 1 0 15 15 15 0 0 1 15 0z" class="cls-6" transform="translate(-15)"/>
                <path fill="#b3b3b3" d="M15 4c-2.938 0-5.7 1.144-7.778 3.222C5.144 9.299 4 12.062 4 15c0 2.938 1.144 5.7 3.222 7.778C9.299 24.856 12.062 26 15 26c2.938 0 5.7-1.144 7.778-3.222C24.856 20.701 26 17.938 26 15c0-2.938-1.144-5.7-3.222-7.778C20.701 5.144 17.938 4 15 4m0-4c8.284 0 15 6.716 15 15 0 8.284-6.716 15-15 15-8.284 0-15-6.716-15-15C0 6.716 6.716 0 15 0z" transform="translate(-15)"/>
            </g>
        </g>
    </g>
</svg>
